<?xml version="1.0" encoding="UTF-8"?>
<svg version="1.1" xmlns="http://www.w3.org/2000/svg" width="1024" height="1024">
<path d="M0 0 C1.04365723 0.0930542 1.04365723 0.0930542 2.10839844 0.18798828 C10.52819103 0.94133814 18.78260724 2.23485825 27.0625 3.9375 C28.22265625 4.17400269 28.22265625 4.17400269 29.40625 4.4152832 C33.7614257 5.35642007 37.84298264 6.58724405 41.98852539 8.21704102 C44.08436848 9.03284012 46.19593519 9.77329802 48.32421875 10.5 C49.04287109 10.7475 49.76152344 10.995 50.50195312 11.25 C51.96947291 11.75359928 53.43824902 12.25355112 54.90820312 12.75 C58.93382602 14.14390369 62.38355035 15.70997843 66 18 C68.09781419 19.03382477 70.20265934 20.05344577 72.3125 21.0625 C77.96357697 23.82806694 83.35081708 26.9195247 88.6875 30.25 C89.37046143 30.67418213 90.05342285 31.09836426 90.75708008 31.53540039 C93.82447141 33.4784029 96.46520985 35.42001492 99 38 C100.60754526 39.14980356 102.23436223 40.27293025 103.875 41.375 C107.64824657 43.97459139 110.84537858 46.65981262 114 50 C114.763125 50.556875 115.52625 51.11375 116.3125 51.6875 C117.1478125 52.3371875 117.1478125 52.3371875 118 53 C118 53.66 118 54.32 118 55 C118.66 55 119.32 55 120 55 C122 58 122 58 121.625 60.6875 C121.315625 61.8321875 121.315625 61.8321875 121 63 C117.05879291 62.43697042 114.2491277 61.3208055 111 59 C111 58.34 111 57.68 111 57 C110.45085937 56.87923096 109.90171875 56.75846191 109.3359375 56.6340332 C106.65863709 55.90734537 104.18982989 54.91368067 101.625 53.85546875 C88.20963931 48.43071715 75.33717198 44.08153328 61 42 C59.90349121 41.82637939 58.80698242 41.65275879 57.67724609 41.47387695 C51.40955101 40.66617571 45.12360937 40.75616187 38.8125 40.75 C38.09957794 40.74899292 37.38665588 40.74798584 36.65213013 40.74694824 C24.89090308 40.75816811 13.51257265 41.47078287 2 44 C1.29053223 44.1551709 0.58106445 44.3103418 -0.14990234 44.47021484 C-6.83094563 45.98561449 -13.24374536 47.72764731 -19.26171875 51.078125 C-21 52 -21 52 -24.75 53.3125 C-32.23467099 56.00874959 -38.95081121 60.67815407 -45.625 64.9375 C-49 67 -49 67 -51 67 C-51 67.66 -51 68.32 -51 69 C-52.9672891 70.64040722 -54.93976121 72.17207114 -57 73.6875 C-58.20189402 74.59323275 -59.40241819 75.50078615 -60.6015625 76.41015625 C-61.18711914 76.85375488 -61.77267578 77.29735352 -62.37597656 77.75439453 C-67.8738982 81.971231 -72.66428347 86.53564185 -77.13671875 91.8203125 C-79.99516313 95.1641531 -82.99908948 98.37488879 -85.984375 101.60546875 C-88.08471923 103.96376025 -88.08471923 103.96376025 -89.640625 106.80078125 C-90.08921875 107.52652344 -90.5378125 108.25226563 -91 109 C-91.66 109 -92.32 109 -93 109 C-93.33 110.65 -93.66 112.3 -94 114 C-92.10221245 112.75296895 -90.20685489 111.50223942 -88.3125 110.25 C-87.25675781 109.55390625 -86.20101562 108.8578125 -85.11328125 108.140625 C-82.06624161 106.13006588 -82.06624161 106.13006588 -79.7421875 104.046875 C-56.34574532 86.58286403 -22.93717768 84.27414009 4.984375 88.3203125 C24.91735911 91.55294756 45.22447432 100.79325087 59 116 C59 116.66 59 117.32 59 118 C61.94091587 117.81584568 61.94091587 117.81584568 65 117 C65.27972656 116.43410156 65.55945313 115.86820312 65.84765625 115.28515625 C67.45515103 112.09741237 69.93580526 110.02794194 72.5625 107.6875 C73.0997168 107.2018457 73.63693359 106.71619141 74.19042969 106.21582031 C77.96857836 102.83324223 81.87367536 99.66992135 85.91796875 96.609375 C89.42039957 93.90205511 92.69674405 90.94420639 96 88 C108.45894737 77 108.45894737 77 111 77 C111.25136719 76.4121875 111.50273438 75.824375 111.76171875 75.21875 C113.15449383 72.72317825 114.63171498 71.33469485 116.8125 69.5 C117.87791016 68.60087891 117.87791016 68.60087891 118.96484375 67.68359375 C119.63644531 67.12800781 120.30804687 66.57242188 121 66 C121.94875 65.195625 122.8975 64.39125 123.875 63.5625 C126 62 126 62 128 62 C128.33 61.01 128.66 60.02 129 59 C130.5910643 57.56197818 132.2486015 56.19674665 133.9375 54.875 C137.77983549 51.81306124 141.50344216 48.69523513 145.125 45.375 C148.97433488 41.85156727 152.95995459 38.66288998 157.1875 35.60546875 C159.13613178 33.87941775 160.00664196 32.38509405 161 30 C160.34 29.01 159.68 28.02 159 27 C158.76953125 24.625 158.76953125 24.625 158.8125 22 C158.81894531 21.13375 158.82539062 20.2675 158.83203125 19.375 C159 17 159 17 160 14 C160.66 14 161.32 14 162 14 C162.33 13.01 162.66 12.02 163 11 C168.16665479 8.89116131 172.59670101 8.49847472 178 10 C181.74130721 11.87065361 183.52896378 13.0784074 185.4375 16.8125 C186.28455779 21.61249412 185.76514068 25.31669051 183.75 29.75 C181.73755956 32.33742342 179.95161507 33.59798284 177 35 C176.01 35 175.02 35 174 35 C174.74512602 36.81235262 175.4903602 38.62466084 176.23608398 40.43676758 C176.8731633 41.98573513 177.50938653 43.53505505 178.14477539 45.0847168 C180.41499924 50.61289288 182.75163588 56.10903484 185.15234375 61.58203125 C186 64 186 64 186 68 C186.66 68 187.32 68 188 68 C188.66 71.3 189.32 74.6 190 78 C190.66 78 191.32 78 192 78 C192.29003906 79.04800781 192.29003906 79.04800781 192.5859375 80.1171875 C192.84632813 81.02726562 193.10671875 81.93734375 193.375 82.875 C193.75785156 84.23238281 193.75785156 84.23238281 194.1484375 85.6171875 C194.8604315 88.14569726 194.8604315 88.14569726 197 90 C197.63838429 91.54082754 198.21197626 93.10882509 198.75 94.6875 C200.37077819 99.29677627 202.10619168 103.8459016 203.9375 108.375 C205.86614218 113.14789015 207.74354726 117.93377923 209.5625 122.75 C211.02144383 126.57280219 212.56717951 130.29992056 214.3125 134 C216.82815649 139.39636093 218.90901949 144.92955414 221 150.5 C223.40105424 156.89353724 225.88211219 163.17354931 228.79296875 169.35546875 C233.01008761 178.59491687 236.50083407 188.190511 239.99584961 197.72143555 C240.95037415 200.30626296 241.9065354 202.81899023 243.171875 205.26953125 C244 207 244 207 244 210 C244.825 209.67 245.65 209.34 246.5 209 C251.99736057 207.42932555 256.64766065 207.02366547 261.8125 209.5625 C265.56630303 212.02485703 266.91967184 214.60666546 268 219 C267.79858199 223.69706788 266.60305928 227.09541108 264 231 C259.77160115 233.81893257 256.03286478 234.28221672 251 234 C246.82868714 232.99155074 244.43717967 231.6557695 242 228 C242 227.01 242 226.02 242 225 C238.80606617 224.08092461 235.79878664 223.78879993 232.48324585 223.62072754 C231.36155502 223.56189896 230.2398642 223.50307037 229.08418274 223.44245911 C227.24499519 223.35202583 227.24499519 223.35202583 225.36865234 223.25976562 C223.38152484 223.15720904 221.39439736 223.05465206 219.40727067 222.95207977 C217.27397025 222.84272505 215.1405794 222.73532219 213.00715256 222.62846375 C208.56179972 222.40567552 204.11677491 222.17676989 199.67178345 221.94689941 C188.63413313 221.37707658 177.59604088 220.81597873 166.55792236 220.25531006 C157.97406315 219.81916771 149.39032182 219.38091323 140.80687869 218.93664885 C136.38532697 218.70804083 131.96358483 218.48371286 127.54165244 218.26259613 C125.45599847 218.15762757 123.37046067 218.05063084 121.28495789 217.94270325 C118.7383989 217.81091738 116.19167006 217.6823609 113.64476013 217.55754089 C112.52870895 217.49871231 111.41265778 217.43988373 110.26278687 217.37927246 C109.28903799 217.32987267 108.31528912 217.28047287 107.3120327 217.22957611 C105 217 105 217 103 216 C101.10499358 215.82762154 99.20456932 215.71356202 97.30371094 215.62695312 C96.10776306 215.57019409 94.91181519 215.51343506 93.67962646 215.45495605 C92.37769348 215.39763306 91.0757605 215.34031006 89.734375 215.28125 C88.38069631 215.21825624 87.02703846 215.15481335 85.67340088 215.09094238 C82.09505923 214.92308455 78.51650445 214.76033459 74.93786621 214.59893799 C69.25357147 214.34188722 63.56960609 214.07773016 57.88568878 213.81248474 C55.9197853 213.72154451 53.95375989 213.63325222 51.98773193 213.54504395 C44.70963261 213.2102193 37.45006897 212.77152107 30.18630981 212.20301819 C24.83298442 211.86192693 19.4867802 211.89377155 14.125 211.9375 C13.04347656 211.94201172 11.96195313 211.94652344 10.84765625 211.95117188 C8.2317076 211.96274687 5.61588733 211.97904453 3 212 C2.67 212.66 2.34 213.32 2 214 C1.34 214 0.68 214 0 214 C-0.2475 214.598125 -0.495 215.19625 -0.75 215.8125 C-2.77576002 219.35758004 -5.17994156 220.72664719 -9 222 C-24.78943778 223.13046444 -24.78943778 223.13046444 -31 218 C-36.39904069 212.72093799 -37.92253006 207.94185278 -38.06640625 200.62109375 C-37.65651141 188.90803808 -37.65651141 188.90803808 -33.55078125 184.328125 C-28.12238272 179.6791187 -23.83311734 178.89229877 -16.6875 178.8125 C-7.9914251 178.44153649 -3.99361551 174.96607976 2 169 C3.70129035 167.45056461 5.40949249 165.90867952 7.125 164.375 C8.34316406 163.26511719 8.34316406 163.26511719 9.5859375 162.1328125 C12.60260799 159.46759877 15.74862478 157.01303724 18.94921875 154.57421875 C21.70217012 152.46100084 24.35096167 150.24149397 27 148 C25.1431901 142.42957029 19.03423945 139.64364162 14 137 C-4.33609754 129.055281 -26.84849167 128.1159191 -45.62109375 135.40625 C-48.66607474 136.84249537 -51.46693205 138.39519048 -54.3125 140.1875 C-58.7810219 143 -58.7810219 143 -61 143 C-61 143.66 -61 144.32 -61 145 C-62.64453125 146.69140625 -62.64453125 146.69140625 -64.8125 148.5625 C-65.52019531 149.18253906 -66.22789062 149.80257812 -66.95703125 150.44140625 C-69 152 -69 152 -72 153 C-73.21869929 155.50447516 -73.21869929 155.50447516 -74 158 C-74.66 158 -75.32 158 -76 158 C-76.40412109 159.07894531 -76.40412109 159.07894531 -76.81640625 160.1796875 C-77.99667721 162.99208234 -79.39554699 165.49622515 -80.9375 168.125 C-83.6168985 172.93484706 -85.2071762 177.53494784 -86.45703125 182.8828125 C-87 185 -87 185 -88 186 C-91.87944793 204.53514012 -87.4955087 222.53768664 -77.8125 238.4375 C-71.59589191 247.89468039 -64.52839904 254.93788642 -55 261 C-54.34386719 261.46148438 -53.68773437 261.92296875 -53.01171875 262.3984375 C-39.30748198 271.76158063 -21.03922482 273.47251313 -5 271 C4.81455137 268.94667203 13.82534802 265.94389308 22 260 C22.8353125 259.39542969 23.670625 258.79085938 24.53125 258.16796875 C27.94649957 255.6011277 30.61362844 253.57955733 33 250 C33.66 250 34.32 250 35 250 C35.66 248.68 36.32 247.36 37 246 C37.66 246 38.32 246 39 246 C39.37125 244.6696875 39.37125 244.6696875 39.75 243.3125 C41.03934768 239.89572865 42.59980129 237.7202252 45 235 C49.93716096 235.52791932 53.25315625 237.02729304 57.5 239.5625 C58.72364324 240.28699077 59.94761187 241.01093222 61.171875 241.734375 C61.79771484 242.10755859 62.42355469 242.48074219 63.06835938 242.86523438 C65.01426815 244.008382 66.97812105 245.11110996 68.953125 246.203125 C69.58927734 246.55689209 70.22542969 246.91065918 70.88085938 247.27514648 C72.66423281 248.2649001 74.44926304 249.25166668 76.234375 250.23828125 C79 252 79 252 81 255 C80.7645812 259.4729572 78.79608063 261.64470325 76 265 C75.41089844 266.07636719 74.82179688 267.15273438 74.21484375 268.26171875 C72.04974765 272.1150353 69.38936533 275.22566956 66.375 278.4375 C65.88515625 278.97826172 65.3953125 279.51902344 64.890625 280.07617188 C63.63959767 281.42803337 62.32430533 282.71983818 61 284 C60.34 284 59.68 284 59 284 C58.731875 284.639375 58.46375 285.27875 58.1875 285.9375 C57 288 57 288 54 289 C54 289.66 54 290.32 54 291 C47.16588233 296.80347874 39.37006581 301.0388616 31.3125 304.875 C30.54188232 305.24375244 29.77126465 305.61250488 28.97729492 305.99243164 C23.4497033 308.54367288 17.88557809 310.45301619 12 312 C11.27490234 312.20375244 10.54980469 312.40750488 9.80273438 312.61743164 C1.92947852 314.53555955 -6.11235584 314.3368114 -14.16577148 314.31567383 C-16.66500104 314.31252832 -19.1630266 314.33598545 -21.66210938 314.36132812 C-39.96212687 314.43390501 -55.63792431 310.52479039 -71.9375 302 C-72.55238281 301.6800708 -73.16726563 301.3601416 -73.80078125 301.03051758 C-77.97238675 298.77336476 -81.41754429 296.09028214 -85 293 C-87.10161553 291.36265366 -89.23760908 289.77866879 -91.375 288.1875 C-91.92027344 287.78080078 -92.46554687 287.37410156 -93.02734375 286.95507812 C-94.35044678 285.96855394 -95.67506081 284.98405678 -97 284 C-91.85169432 292.06997023 -91.85169432 292.06997023 -86 299.625 C-84 302 -84 302 -84 304 C-83.34 304 -82.68 304 -82 304 C-80.6953125 305.36328125 -80.6953125 305.36328125 -79.125 307.3125 C-61.22918508 328.22777341 -36.98126372 342.6396793 -11.08447266 351.27978516 C-9.03101095 351.98928528 -7.02515544 352.78029254 -5.0078125 353.5859375 C-0.78995786 355.18115175 3.42799803 355.95259617 7.875 356.625 C8.67236572 356.74979736 9.46973145 356.87459473 10.29125977 357.00317383 C12.52599624 357.34685664 14.7623134 357.67617394 17 358 C17.89847656 358.13535156 18.79695312 358.27070312 19.72265625 358.41015625 C42.08166297 361.20996132 67.60133144 358.89953547 88.37890625 350.08984375 C91.34519616 348.85646836 94.35510557 347.78270547 97.375 346.6875 C104.03948486 344.1411638 109.93494775 340.72132999 116 337 C117.24683603 336.30677842 118.4963053 335.6182392 119.75 334.9375 C123.15430754 332.90800897 126.20063488 330.63250198 129.30078125 328.171875 C131 327 131 327 133 327 C133 326.34 133 325.68 133 325 C137.42103596 320.44116552 142.62915763 316.36994031 148 313 C148.99 313.33 149.98 313.66 151 314 C150.53595593 319.12730666 148.98667355 321.86607729 145.8125 325.875 C144.98684322 326.9308833 144.16132248 327.98687297 143.3359375 329.04296875 C142.56507813 330.01878906 141.79421875 330.99460937 141 332 C139.97451715 333.39242103 138.95295208 334.787747 137.9375 336.1875 C135.15655607 339.89798596 132.11503594 343.33761685 129.00390625 346.7734375 C127.12742936 348.85841183 125.31339696 350.98527421 123.5 353.125 C120.02135962 357.10744347 116.26793831 360.86036722 112 364 C111.34 364 110.68 364 110 364 C109.79632812 364.55816406 109.59265625 365.11632812 109.3828125 365.69140625 C107.48027909 368.86766965 104.80284983 370.76875292 101.875 372.9375 C101.29258545 373.37626465 100.7101709 373.8150293 100.11010742 374.26708984 C88.40515413 383 88.40515413 383 85 383 C85 383.66 85 384.32 85 385 C78.87048384 389.4471596 71.81993577 392.75241154 65 396 C64.17113281 396.39960937 63.34226562 396.79921875 62.48828125 397.2109375 C49.37425468 403.36610094 36.11156424 407.84547106 22 411 C21.07445312 411.21527344 20.14890625 411.43054688 19.1953125 411.65234375 C13.61004163 412.87467939 8.07531355 413.39784667 2.37109375 413.75390625 C0.0464942 413.74339551 0.0464942 413.74339551 -1 415 C-6.31525359 415.97627107 -11.6045378 416.13187668 -17 416.1875 C-17.66394775 416.20047119 -18.32789551 416.21344238 -19.01196289 416.22680664 C-23.19776133 416.23451719 -26.70488166 415.57979032 -30.76708984 414.46557617 C-35.37854282 413.50405848 -40.11858838 413.64992397 -44.8125 413.5625 C-63.50200228 413.00029657 -82.75508683 410.60101296 -100 403 C-101.56613752 402.38199234 -103.13538171 401.77182131 -104.70703125 401.16796875 C-120.90954392 394.90232549 -120.90954392 394.90232549 -127.9453125 390.3203125 C-131.15912128 388.25516541 -134.56100298 386.65581338 -138 385 C-138 384.34 -138 383.68 -138 383 C-138.55558594 382.9071875 -139.11117187 382.814375 -139.68359375 382.71875 C-152.13881277 378.85406147 -167.3140094 363.77173942 -176 354 C-176 353.34 -176 352.68 -176 352 C-177.32 351.34 -178.64 350.68 -180 350 C-180 349.34 -180 348.68 -180 348 C-180.99 347.67 -181.98 347.34 -183 347 C-183.33333333 345.66666667 -183.66666667 344.33333333 -184 343 C-184.99 342.67 -185.98 342.34 -187 342 C-188.1875 339.4375 -188.1875 339.4375 -189 337 C-189.66 337 -190.32 337 -191 337 C-191.91753238 335.69428084 -192.82065332 334.37722887 -193.671875 333.02734375 C-195.31043189 330.52613485 -197.0913257 328.1497908 -198.875 325.75 C-209.63315217 310.9701087 -209.63315217 310.9701087 -210 304 C-210.66 304 -211.32 304 -212 304 C-213.25664978 301.09399739 -214 299.20395416 -214 296 C-214.66 296 -215.32 296 -216 296 C-219.53109064 286.72500191 -222.92873464 277.43944006 -226 268 C-226.23847656 267.37593262 -226.47695313 266.75186523 -226.72265625 266.10888672 C-229.150182 259.51280655 -229.91468254 252.96595417 -230.625 246 C-230.86348609 243.74960466 -231.10547326 241.4995766 -231.3515625 239.25 C-231.45291504 238.26515625 -231.55426758 237.2803125 -231.65869141 236.265625 C-231.76509231 234.03694686 -231.76509231 234.03694686 -233 233 C-234.15493029 225.52548634 -234.15357791 218.06254638 -234.13037109 210.51586914 C-234.12500191 208.4382399 -234.13034943 206.3608259 -234.13671875 204.28320312 C-234.14405259 191.38896972 -234.14405259 191.38896972 -233 185 C-232.67 184.67 -232.34 184.34 -232 184 C-231.7979717 182.67036756 -231.65333027 181.33187879 -231.53515625 179.9921875 C-231.45716797 179.16976562 -231.37917969 178.34734375 -231.29882812 177.5 C-231.14340047 175.77359699 -230.98970509 174.04703699 -230.83789062 172.3203125 C-230.36067463 167.32312383 -229.50916937 162.81225706 -228 158 C-227.73960937 156.92363281 -227.47921875 155.84726562 -227.2109375 154.73828125 C-222.80161492 136.66830039 -215.01580985 120.19249937 -206 104 C-205.63922363 103.34338379 -205.27844727 102.68676758 -204.90673828 102.01025391 C-200.81591462 94.58458303 -200.81591462 94.58458303 -199 92 C-198.34 92 -197.68 92 -197 92 C-196.34 90.02 -195.68 88.04 -195 86 C-194.34 86 -193.68 86 -193 86 C-192.34 84.35 -191.68 82.7 -191 81 C-190.34 81 -189.68 81 -189 81 C-188.773125 80.29875 -188.54625 79.5975 -188.3125 78.875 C-185.77486506 73.31637109 -181.32590119 69.21775366 -177 65 C-176.2575 64.2575 -175.515 63.515 -174.75 62.75 C-173.8425 61.8425 -172.935 60.935 -172 60 C-171.34 59.31679688 -170.68 58.63359375 -170 57.9296875 C-164.97768866 52.78530609 -159.80966361 48.23137167 -154 44 C-153.1028125 43.34386719 -152.205625 42.68773437 -151.28125 42.01171875 C-144.29095691 37 -144.29095691 37 -142 37 C-142 36.34 -142 35.68 -142 35 C-140.40209961 33.7824707 -140.40209961 33.7824707 -138.15234375 32.42578125 C-137.32702148 31.92643066 -136.50169922 31.42708008 -135.65136719 30.91259766 C-134.75579102 30.38456543 -133.86021484 29.8565332 -132.9375 29.3125 C-132.02516602 28.77157715 -131.11283203 28.2306543 -130.17285156 27.67333984 C-118.26740199 20.70658623 -105.93118612 15.30567272 -92.94238281 10.6953125 C-91.09776766 10.03499777 -89.26335511 9.34638311 -87.4296875 8.65625 C-60.43808153 -1.07259259 -28.42071383 -2.91617658 0 0 Z " fill="#011842" transform="translate(511,309)"/>
<path d="M0 0 C3.10512871 2.73547053 3.90920668 4.25633787 4.625 8.3125 C4.37358625 13.0893613 3.57920884 16.51423149 0.625 20.3125 C-2.33740248 22.4602418 -3.68946856 23.3125 -7.375 23.3125 C-6.62987398 25.12485262 -5.8846398 26.93716084 -5.13891602 28.74926758 C-4.5018367 30.29823513 -3.86561347 31.84755505 -3.23022461 33.3972168 C-0.96000076 38.92539288 1.37663588 44.42153484 3.77734375 49.89453125 C4.625 52.3125 4.625 52.3125 4.625 56.3125 C5.285 56.3125 5.945 56.3125 6.625 56.3125 C7.285 59.6125 7.945 62.9125 8.625 66.3125 C9.285 66.3125 9.945 66.3125 10.625 66.3125 C10.91503906 67.36050781 10.91503906 67.36050781 11.2109375 68.4296875 C11.47132813 69.33976562 11.73171875 70.24984375 12 71.1875 C12.38285156 72.54488281 12.38285156 72.54488281 12.7734375 73.9296875 C13.4854315 76.45819726 13.4854315 76.45819726 15.625 78.3125 C16.26338429 79.85332754 16.83697626 81.42132509 17.375 83 C18.99577819 87.60927627 20.73119168 92.1584016 22.5625 96.6875 C24.49114218 101.46039015 26.36854726 106.24627923 28.1875 111.0625 C29.64644383 114.88530219 31.19217951 118.61242056 32.9375 122.3125 C35.45315649 127.70886093 37.53401949 133.24205414 39.625 138.8125 C42.02605424 145.20603724 44.50711219 151.48604931 47.41796875 157.66796875 C51.63508761 166.90741687 55.12583407 176.503011 58.62084961 186.03393555 C59.57537415 188.61876296 60.5315354 191.13149023 61.796875 193.58203125 C62.625 195.3125 62.625 195.3125 62.625 198.3125 C63.45 197.9825 64.275 197.6525 65.125 197.3125 C70.62236057 195.74182555 75.27266065 195.33616547 80.4375 197.875 C84.19130303 200.33735703 85.54467184 202.91916546 86.625 207.3125 C86.42358199 212.00956788 85.22805928 215.40791108 82.625 219.3125 C78.39660115 222.13143257 74.65786478 222.59471672 69.625 222.3125 C65.45368714 221.30405074 63.06217967 219.9682695 60.625 216.3125 C60.625 215.3225 60.625 214.3325 60.625 213.3125 C57.43106617 212.39342461 54.42378664 212.10129993 51.10824585 211.93322754 C49.98655502 211.87439896 48.8648642 211.81557037 47.70918274 211.75495911 C45.86999519 211.66452583 45.86999519 211.66452583 43.99365234 211.57226562 C42.00652484 211.46970904 40.01939736 211.36715206 38.03227067 211.26457977 C35.89897025 211.15522505 33.7655794 211.04782219 31.63215256 210.94096375 C27.18679972 210.71817552 22.74177491 210.48926989 18.29678345 210.25939941 C7.25913313 209.68957658 -3.77895912 209.12847873 -14.81707764 208.56781006 C-23.40093685 208.13166771 -31.98467818 207.69341323 -40.56812131 207.24914885 C-44.98967303 207.02054083 -49.41141517 206.79621286 -53.83334756 206.57509613 C-55.91900153 206.47012757 -58.00453933 206.36313084 -60.09004211 206.25520325 C-62.6366011 206.12341738 -65.18332994 205.9948609 -67.73023987 205.87004089 C-68.84629105 205.81121231 -69.96234222 205.75238373 -71.11221313 205.69177246 C-72.57283645 205.61767277 -72.57283645 205.61767277 -74.0629673 205.54207611 C-76.375 205.3125 -76.375 205.3125 -78.375 204.3125 C-80.27000642 204.14012154 -82.17043068 204.02606202 -84.07128906 203.93945312 C-85.26723694 203.88269409 -86.46318481 203.82593506 -87.69537354 203.76745605 C-88.99730652 203.71013306 -90.2992395 203.65281006 -91.640625 203.59375 C-92.99430369 203.53075624 -94.34796154 203.46731335 -95.70159912 203.40344238 C-99.27994077 203.23558455 -102.85849555 203.07283459 -106.43713379 202.91143799 C-112.12142853 202.65438722 -117.80539391 202.39023016 -123.48931122 202.12498474 C-125.4552147 202.03404451 -127.42124011 201.94575222 -129.38726807 201.85754395 C-136.66536739 201.5227193 -143.92493103 201.08402107 -151.18869019 200.51551819 C-156.54201558 200.17442693 -161.8882198 200.20627155 -167.25 200.25 C-168.33152344 200.25451172 -169.41304687 200.25902344 -170.52734375 200.26367188 C-173.1432924 200.27524687 -175.75911267 200.29154453 -178.375 200.3125 C-178.705 200.9725 -179.035 201.6325 -179.375 202.3125 C-180.035 202.3125 -180.695 202.3125 -181.375 202.3125 C-181.6225 202.910625 -181.87 203.50875 -182.125 204.125 C-184.15076002 207.67008004 -186.55494156 209.03914719 -190.375 210.3125 C-206.16443778 211.44296444 -206.16443778 211.44296444 -212.375 206.3125 C-217.77404069 201.03343799 -219.29753006 196.25435278 -219.44140625 188.93359375 C-219.03151141 177.22053808 -219.03151141 177.22053808 -214.92578125 172.640625 C-209.49738272 167.9916187 -205.20811734 167.20479877 -198.0625 167.125 C-189.3664251 166.75403649 -185.36861551 163.27857976 -179.375 157.3125 C-177.67370965 155.76306461 -175.96550751 154.22117952 -174.25 152.6875 C-173.03183594 151.57761719 -173.03183594 151.57761719 -171.7890625 150.4453125 C-168.77239201 147.78009877 -165.62637522 145.32553724 -162.42578125 142.88671875 C-159.67282988 140.77350084 -157.02403833 138.55399397 -154.375 136.3125 C-156.2318099 130.74207029 -162.34076055 127.95614162 -167.375 125.3125 C-185.71109754 117.367781 -208.22349167 116.4284191 -226.99609375 123.71875 C-230.04107474 125.15499537 -232.84193205 126.70769048 -235.6875 128.5 C-240.1560219 131.3125 -240.1560219 131.3125 -242.375 131.3125 C-242.375 131.9725 -242.375 132.6325 -242.375 133.3125 C-244.01953125 135.00390625 -244.01953125 135.00390625 -246.1875 136.875 C-246.89519531 137.49503906 -247.60289062 138.11507812 -248.33203125 138.75390625 C-250.375 140.3125 -250.375 140.3125 -253.375 141.3125 C-254.59369929 143.81697516 -254.59369929 143.81697516 -255.375 146.3125 C-256.035 146.3125 -256.695 146.3125 -257.375 146.3125 C-257.64441406 147.03179687 -257.91382813 147.75109375 -258.19140625 148.4921875 C-259.37167721 151.30458234 -260.77054699 153.80872515 -262.3125 156.4375 C-264.9918985 161.24734706 -266.5821762 165.84744784 -267.83203125 171.1953125 C-268.375 173.3125 -268.375 173.3125 -269.375 174.3125 C-273.25444793 192.84764012 -268.8705087 210.85018664 -259.1875 226.75 C-252.97089191 236.20718039 -245.90339904 243.25038642 -236.375 249.3125 C-235.71886719 249.77398438 -235.06273437 250.23546875 -234.38671875 250.7109375 C-220.68248198 260.07408063 -202.41422482 261.78501313 -186.375 259.3125 C-176.56044863 257.25917203 -167.54965198 254.25639308 -159.375 248.3125 C-158.5396875 247.70792969 -157.704375 247.10335937 -156.84375 246.48046875 C-153.42850043 243.9136277 -150.76137156 241.89205733 -148.375 238.3125 C-147.715 238.3125 -147.055 238.3125 -146.375 238.3125 C-145.715 236.9925 -145.055 235.6725 -144.375 234.3125 C-143.715 234.3125 -143.055 234.3125 -142.375 234.3125 C-142.00375 232.9821875 -142.00375 232.9821875 -141.625 231.625 C-140.33565232 228.20822865 -138.77519871 226.0327252 -136.375 223.3125 C-131.43783904 223.84041932 -128.12184375 225.33979304 -123.875 227.875 C-122.65135676 228.59949077 -121.42738813 229.32343222 -120.203125 230.046875 C-119.57728516 230.42005859 -118.95144531 230.79324219 -118.30664062 231.17773438 C-116.36073185 232.320882 -114.39687895 233.42360996 -112.421875 234.515625 C-111.78572266 234.86939209 -111.14957031 235.22315918 -110.49414062 235.58764648 C-108.71076719 236.5774001 -106.92573696 237.56416668 -105.140625 238.55078125 C-102.375 240.3125 -102.375 240.3125 -100.375 243.3125 C-100.6104188 247.7854572 -102.57891937 249.95720325 -105.375 253.3125 C-105.96410156 254.38886719 -106.55320312 255.46523438 -107.16015625 256.57421875 C-109.32525235 260.4275353 -111.98563467 263.53816956 -115 266.75 C-115.73476563 267.56114258 -115.73476563 267.56114258 -116.484375 268.38867188 C-117.73540233 269.74053337 -119.05069467 271.03233818 -120.375 272.3125 C-121.035 272.3125 -121.695 272.3125 -122.375 272.3125 C-122.643125 272.951875 -122.91125 273.59125 -123.1875 274.25 C-124.375 276.3125 -124.375 276.3125 -127.375 277.3125 C-127.375 277.9725 -127.375 278.6325 -127.375 279.3125 C-134.20911767 285.11597874 -142.00493419 289.3513616 -150.0625 293.1875 C-150.83311768 293.55625244 -151.60373535 293.92500488 -152.39770508 294.30493164 C-157.9252967 296.85617288 -163.48942191 298.76551619 -169.375 300.3125 C-170.10009766 300.51625244 -170.82519531 300.72000488 -171.57226562 300.92993164 C-179.44552148 302.84805955 -187.48735584 302.6493114 -195.54077148 302.62817383 C-198.04000104 302.62502832 -200.5380266 302.64848545 -203.03710938 302.67382812 C-221.33712687 302.74640501 -237.01292431 298.83729039 -253.3125 290.3125 C-253.92738281 289.9925708 -254.54226563 289.6726416 -255.17578125 289.34301758 C-259.39741398 287.05879627 -262.77317652 284.43833318 -266.375 281.3125 C-268.01908909 280.03941092 -269.66483697 278.76846019 -271.3125 277.5 C-275.90381107 273.83108126 -279.75172407 269.92977198 -283.375 265.3125 C-283.82858887 264.78213135 -284.28217773 264.2517627 -284.74951172 263.70532227 C-289.35567362 258.05389907 -291.70189776 252.1223617 -294 245.25 C-294.38534912 244.09806152 -294.77069824 242.94612305 -295.16772461 241.75927734 C-304.19312817 213.84862445 -306.25429245 181.88427221 -298.87451172 153.27392578 C-298.43765088 151.55851035 -298.07385821 149.82482349 -297.72265625 148.08984375 C-296.33530246 141.49764634 -293.95498964 135.3175002 -291.5 129.0625 C-291.00838379 127.80167603 -291.00838379 127.80167603 -290.50683594 126.51538086 C-287.27137008 118.52080722 -283.6516209 111.96184286 -277.0625 106.25 C-276.10472656 105.41082031 -275.14695312 104.57164062 -274.16015625 103.70703125 C-273.24105469 102.91683594 -272.32195312 102.12664062 -271.375 101.3125 C-269.91638765 100.02114842 -268.45801942 98.729521 -267 97.4375 C-265.80036006 96.38583327 -264.5916985 95.34438354 -263.375 94.3125 C-262.68535156 93.69117188 -261.99570312 93.06984375 -261.28515625 92.4296875 C-237.48835342 75.11711417 -204.64373724 72.53859307 -176.390625 76.6328125 C-156.45764089 79.86544756 -136.15052568 89.10575087 -122.375 104.3125 C-122.375 104.9725 -122.375 105.6325 -122.375 106.3125 C-119.43408413 106.12834568 -119.43408413 106.12834568 -116.375 105.3125 C-116.09527344 104.74660156 -115.81554687 104.18070312 -115.52734375 103.59765625 C-113.91984897 100.40991237 -111.43919474 98.34044194 -108.8125 96 C-108.2752832 95.5143457 -107.73806641 95.02869141 -107.18457031 94.52832031 C-103.40642164 91.14574223 -99.50132464 87.98242135 -95.45703125 84.921875 C-91.95460043 82.21455511 -88.67825595 79.25670639 -85.375 76.3125 C-72.91605263 65.3125 -72.91605263 65.3125 -70.375 65.3125 C-70.12363281 64.7246875 -69.87226562 64.136875 -69.61328125 63.53125 C-68.22050617 61.03567825 -66.74328502 59.64719485 -64.5625 57.8125 C-63.49708984 56.91337891 -63.49708984 56.91337891 -62.41015625 55.99609375 C-61.40275391 55.16271484 -61.40275391 55.16271484 -60.375 54.3125 C-59.42625 53.508125 -58.4775 52.70375 -57.5 51.875 C-55.375 50.3125 -55.375 50.3125 -53.375 50.3125 C-53.045 49.3225 -52.715 48.3325 -52.375 47.3125 C-50.7839357 45.87447818 -49.1263985 44.50924665 -47.4375 43.1875 C-43.59516451 40.12556124 -39.87155784 37.00773513 -36.25 33.6875 C-32.40066512 30.16406727 -28.41504541 26.97538998 -24.1875 23.91796875 C-22.23886822 22.19191775 -21.36835804 20.69759405 -20.375 18.3125 C-21.035 17.3225 -21.695 16.3325 -22.375 15.3125 C-22.60546875 12.9375 -22.60546875 12.9375 -22.5625 10.3125 C-22.55605469 9.44625 -22.54960938 8.58 -22.54296875 7.6875 C-22.375 5.3125 -22.375 5.3125 -21.375 2.3125 C-20.715 2.3125 -20.055 2.3125 -19.375 2.3125 C-19.045 1.3225 -18.715 0.3325 -18.375 -0.6875 C-11.79244445 -3.37425737 -6.36288451 -3.18144225 0 0 Z " fill="#F3D080" transform="translate(692.375,320.6875)"/>
<path d="M0 0 C27.5941546 6.5699342 27.5941546 6.5699342 35.03515625 11.09765625 C37.71427455 12.79706555 37.71427455 12.79706555 41.25 13.921875 C46.85500442 15.94283434 51.80592975 19.07485287 56.890625 22.140625 C57.8703125 22.72199219 58.85 23.30335938 59.859375 23.90234375 C67.08213025 28.21428917 67.08213025 28.21428917 69.74121094 30.24414062 C71.93964764 31.86047198 74.26663413 32.73338464 76.77734375 33.765625 C82.26170077 36.34108826 86.45204654 40.33884171 90.640625 44.640625 C91.40375 45.1975 92.166875 45.754375 92.953125 46.328125 C93.7884375 46.9778125 93.7884375 46.9778125 94.640625 47.640625 C94.640625 48.300625 94.640625 48.960625 94.640625 49.640625 C95.300625 49.640625 95.960625 49.640625 96.640625 49.640625 C98.640625 52.640625 98.640625 52.640625 98.265625 55.328125 C97.95625 56.4728125 97.95625 56.4728125 97.640625 57.640625 C93.69941791 57.07759542 90.8897527 55.9614305 87.640625 53.640625 C87.640625 52.980625 87.640625 52.320625 87.640625 51.640625 C87.09148437 51.51985596 86.54234375 51.39908691 85.9765625 51.2746582 C83.29926209 50.54797037 80.83045489 49.55430567 78.265625 48.49609375 C64.85026431 43.07134215 51.97779698 38.72215828 37.640625 36.640625 C36.54411621 36.46700439 35.44760742 36.29338379 34.31787109 36.11450195 C28.05017601 35.30680071 21.76423437 35.39678687 15.453125 35.390625 C14.74020294 35.38961792 14.02728088 35.38861084 13.29275513 35.38757324 C1.53152808 35.39879311 -9.84680235 36.11140787 -21.359375 38.640625 C-22.06884277 38.7957959 -22.77831055 38.9509668 -23.50927734 39.11083984 C-30.19032063 40.62623949 -36.60312036 42.36827231 -42.62109375 45.71875 C-44.359375 46.640625 -44.359375 46.640625 -48.109375 47.953125 C-55.59404599 50.64937459 -62.31018621 55.31877907 -68.984375 59.578125 C-72.359375 61.640625 -72.359375 61.640625 -74.359375 61.640625 C-74.359375 62.300625 -74.359375 62.960625 -74.359375 63.640625 C-76.3266641 65.28103222 -78.29913621 66.81269614 -80.359375 68.328125 C-81.56126902 69.23385775 -82.76179319 70.14141115 -83.9609375 71.05078125 C-84.54649414 71.49437988 -85.13205078 71.93797852 -85.73535156 72.39501953 C-91.2332732 76.611856 -96.02365847 81.17626685 -100.49609375 86.4609375 C-103.35453813 89.8047781 -106.35846448 93.01551379 -109.34375 96.24609375 C-111.44409423 98.60438525 -111.44409423 98.60438525 -113 101.44140625 C-113.44859375 102.16714844 -113.8971875 102.89289063 -114.359375 103.640625 C-115.019375 103.640625 -115.679375 103.640625 -116.359375 103.640625 C-116.689375 105.290625 -117.019375 106.940625 -117.359375 108.640625 C-115.379375 107.320625 -113.399375 106.000625 -111.359375 104.640625 C-110.699375 104.970625 -110.039375 105.300625 -109.359375 105.640625 C-110.69742188 106.74470703 -110.69742188 106.74470703 -112.0625 107.87109375 C-113.24500515 108.85651471 -114.42728491 109.84220618 -115.609375 110.828125 C-116.19589844 111.31087891 -116.78242188 111.79363281 -117.38671875 112.29101562 C-123.56935804 117.46637098 -127.15555004 122.72789936 -130.359375 130.078125 C-130.70895264 130.87436279 -131.05853027 131.67060059 -131.41870117 132.4909668 C-134.38726206 139.41114292 -136.58221776 146.31526955 -138.359375 153.640625 C-138.63394531 154.74019531 -138.90851563 155.83976563 -139.19140625 156.97265625 C-139.96628255 160.19049233 -140.70467584 163.39590718 -141.359375 166.640625 C-141.53001465 167.45265381 -141.7006543 168.26468262 -141.87646484 169.10131836 C-143.58390409 178.04129906 -143.76100213 186.88830255 -143.734375 195.953125 C-143.73206375 197.14406769 -143.73206375 197.14406769 -143.72970581 198.35906982 C-143.64356166 217.06056608 -140.9531607 233.72054971 -135.046875 251.515625 C-134.69246338 252.59215332 -134.33805176 253.66868164 -133.97290039 254.77783203 C-131.48470829 261.78975916 -128.24503001 267.05444266 -123.359375 272.640625 C-122.37859291 273.82679113 -121.39923687 275.01413914 -120.421875 276.203125 C-119.74125 277.0075 -119.060625 277.811875 -118.359375 278.640625 C-119.019375 278.640625 -119.679375 278.640625 -120.359375 278.640625 C-115.21106932 286.71059523 -115.21106932 286.71059523 -109.359375 294.265625 C-107.359375 296.640625 -107.359375 296.640625 -107.359375 298.640625 C-106.699375 298.640625 -106.039375 298.640625 -105.359375 298.640625 C-104.0546875 300.00390625 -104.0546875 300.00390625 -102.484375 301.953125 C-84.58856008 322.86839841 -60.34063872 337.2803043 -34.44384766 345.92041016 C-32.39038595 346.62991028 -30.38453044 347.42091754 -28.3671875 348.2265625 C-24.14933286 349.82177675 -19.93137697 350.59322117 -15.484375 351.265625 C-14.68700928 351.39042236 -13.88964355 351.51521973 -13.06811523 351.64379883 C-10.83337876 351.98748164 -8.5970616 352.31679894 -6.359375 352.640625 C-5.46089844 352.77597656 -4.56242188 352.91132812 -3.63671875 353.05078125 C18.72228797 355.85058632 44.24195644 353.54016047 65.01953125 344.73046875 C67.98582116 343.49709336 70.99573057 342.42333047 74.015625 341.328125 C80.68010986 338.7817888 86.57557275 335.36195499 92.640625 331.640625 C93.88746103 330.94740342 95.1369303 330.2588642 96.390625 329.578125 C99.79493254 327.54863397 102.84125988 325.27312698 105.94140625 322.8125 C107.640625 321.640625 107.640625 321.640625 109.640625 321.640625 C109.640625 320.980625 109.640625 320.320625 109.640625 319.640625 C114.06166096 315.08179052 119.26978263 311.01056531 124.640625 307.640625 C125.630625 307.970625 126.620625 308.300625 127.640625 308.640625 C127.17658093 313.76793166 125.62729855 316.50670229 122.453125 320.515625 C121.62746822 321.5715083 120.80194748 322.62749797 119.9765625 323.68359375 C119.20570313 324.65941406 118.43484375 325.63523437 117.640625 326.640625 C116.61514215 328.03304603 115.59357708 329.428372 114.578125 330.828125 C111.79718107 334.53861096 108.75566094 337.97824185 105.64453125 341.4140625 C103.76805436 343.49903683 101.95402196 345.62589921 100.140625 347.765625 C96.66198462 351.74806847 92.90856331 355.50099222 88.640625 358.640625 C87.980625 358.640625 87.320625 358.640625 86.640625 358.640625 C86.43695312 359.19878906 86.23328125 359.75695312 86.0234375 360.33203125 C84.12090409 363.50829465 81.44347483 365.40937792 78.515625 367.578125 C77.93321045 368.01688965 77.3507959 368.4556543 76.75073242 368.90771484 C65.04577913 377.640625 65.04577913 377.640625 61.640625 377.640625 C61.640625 378.300625 61.640625 378.960625 61.640625 379.640625 C55.51110884 384.0877846 48.46056077 387.39303654 41.640625 390.640625 C40.39732422 391.24003906 40.39732422 391.24003906 39.12890625 391.8515625 C26.03522452 397.99717694 12.75989476 402.56358853 -1.359375 405.640625 C-2.11919678 405.81577637 -2.87901855 405.99092773 -3.66186523 406.17138672 C-10.00910266 407.55955047 -16.1866987 408.05543698 -22.671875 408.265625 C-23.61482422 408.30429687 -24.55777344 408.34296875 -25.52929688 408.3828125 C-28.47245306 408.49455267 -31.41495854 408.57027 -34.359375 408.640625 C-35.39658691 408.67921631 -36.43379883 408.71780762 -37.50244141 408.75756836 C-45.69854951 408.94663302 -53.13687063 407.78820707 -61.109375 405.953125 C-62.95233154 405.53994019 -62.95233154 405.53994019 -64.83251953 405.1184082 C-101.09831688 396.85099122 -133.89871939 381.76739742 -162.359375 357.640625 C-163.57560547 356.62742187 -163.57560547 356.62742187 -164.81640625 355.59375 C-168.995471 352.05142542 -168.995471 352.05142542 -170.359375 350.640625 C-170.359375 349.980625 -170.359375 349.320625 -170.359375 348.640625 C-171.349375 348.310625 -172.339375 347.980625 -173.359375 347.640625 C-178.02646996 343.23350085 -181.85319642 337.82036659 -185.796875 332.765625 C-186.24619385 332.19424805 -186.6955127 331.62287109 -187.15844727 331.03417969 C-190.359375 326.87713068 -190.359375 326.87713068 -190.359375 324.640625 C-189.47894531 324.59164063 -188.59851563 324.54265625 -187.69140625 324.4921875 C-185.94923828 324.38003906 -185.94923828 324.38003906 -184.171875 324.265625 C-183.02332031 324.19601562 -181.87476563 324.12640625 -180.69140625 324.0546875 C-177.44194994 323.65088636 -175.20473125 323.24569776 -172.359375 321.640625 C-170.5029332 319.24413613 -170.5029332 319.24413613 -168.984375 316.390625 C-165.90239105 310.89467333 -162.21779779 306.0586633 -156.140625 303.82519531 C-153.78342275 303.24379158 -151.44161766 302.78877292 -149.046875 302.390625 C-143.18722988 301.63891858 -143.18722988 301.63891858 -138.359375 298.640625 C-137.66145972 294.04072883 -139.33100691 291.64427917 -141.859375 287.890625 C-145.1508585 282.80082423 -148.00941455 277.61644993 -150.609375 272.140625 C-150.92583984 271.4899707 -151.24230469 270.83931641 -151.56835938 270.16894531 C-156.73889619 259.08535224 -159.36199012 247.16612761 -161.609375 235.203125 C-161.74111115 234.50741394 -161.87284729 233.81170288 -162.00857544 233.09490967 C-164.13166377 221.69611207 -165.1208268 210.67929184 -164.49023438 199.07958984 C-164.35920627 196.63748016 -164.28363996 194.19858641 -164.21875 191.75390625 C-164.1642069 190.19521389 -164.10704753 188.63661019 -164.046875 187.078125 C-164.01388306 186.07966553 -164.01388306 186.07966553 -163.98022461 185.06103516 C-162.64556275 160.76242612 -152.07174961 135.55166187 -139.4609375 115.08984375 C-137.7696227 112.34052256 -136.19179076 109.55174131 -134.671875 106.703125 C-131.34584031 100.62450988 -127.24289185 95.52414185 -122.359375 90.640625 C-121.51745451 89.48014 -120.68542335 88.31246103 -119.859375 87.140625 C-113.41774284 78.43791489 -105.52005381 71.02789284 -96.484375 65.10546875 C-94.56251186 63.78065501 -93.02545747 62.45034111 -91.421875 60.765625 C-89.359375 58.640625 -89.359375 58.640625 -86.359375 57.640625 C-85.75609375 57.0321875 -85.1528125 56.42375 -84.53125 55.796875 C-78.17216913 49.48354291 -67.14908866 43.60674516 -58.359375 41.640625 C-59.49010155 38.24844535 -59.84418416 38.06917151 -62.81640625 36.44921875 C-63.51701172 36.06185547 -64.21761719 35.67449219 -64.93945312 35.27539062 C-65.67615234 34.88029297 -66.41285156 34.48519531 -67.171875 34.078125 C-68.25952148 33.47967773 -68.25952148 33.47967773 -69.36914062 32.86914062 C-72.66895264 31.06073496 -75.98734363 29.31096226 -79.359375 27.640625 C-77.80325312 23.77255062 -75.3793096 21.58107292 -72.296875 18.828125 C-71.80517822 18.38871582 -71.31348145 17.94930664 -70.80688477 17.49658203 C-67.19280342 14.29795935 -63.46797473 11.28397768 -59.625 8.3671875 C-56.23957708 5.78726175 -52.93626039 3.10671629 -49.62109375 0.4375 C-48.50154297 -0.45195312 -48.50154297 -0.45195312 -47.359375 -1.359375 C-46.71097656 -1.92398437 -46.06257812 -2.48859375 -45.39453125 -3.0703125 C-35.32819282 -9.44630421 -10.79416375 -2.41720015 0 0 Z " fill="#0DA9C0" transform="translate(534.359375,314.359375)"/>
<path d="M0 0 C4.81407703 4.44223108 4.81407703 4.44223108 6 8 C7.62102968 9.71108689 9.29503463 11.37253306 11 13 C12.66666667 14.66666667 14.33333333 16.33333333 16 18 C14.42352268 22.37679886 10.98287787 24.77967055 7.5 27.625 C-3.19915859 36.4228431 -3.19915859 36.4228431 -12 47 C-17.12628148 45.01105014 -19.99519372 40.60688218 -23.46484375 36.53125 C-26.0207872 33.97924483 -27.65191172 33.14837811 -31 32 C-32.31348582 31.09332254 -33.60494109 30.15407094 -34.875 29.1875 C-49.60731219 19.08534307 -69.54282879 18.03543621 -86.70361328 20.92871094 C-94.69161729 22.42681906 -101.42054277 24.84653161 -108.3125 29.1875 C-112.7810219 32 -112.7810219 32 -115 32 C-115 32.66 -115 33.32 -115 34 C-116.64453125 35.69140625 -116.64453125 35.69140625 -118.8125 37.5625 C-119.87404297 38.49255859 -119.87404297 38.49255859 -120.95703125 39.44140625 C-123 41 -123 41 -126 42 C-127.21869929 44.50447516 -127.21869929 44.50447516 -128 47 C-128.66 47 -129.32 47 -130 47 C-130.26941406 47.71929687 -130.53882813 48.43859375 -130.81640625 49.1796875 C-131.99667721 51.99208234 -133.39554699 54.49622515 -134.9375 57.125 C-137.6168985 61.93484706 -139.2071762 66.53494784 -140.45703125 71.8828125 C-141 74 -141 74 -142 75 C-145.87944793 93.53514012 -141.4955087 111.53768664 -131.8125 127.4375 C-125.59589191 136.89468039 -118.52839904 143.93788642 -109 150 C-108.34386719 150.46148438 -107.68773437 150.92296875 -107.01171875 151.3984375 C-93.30748198 160.76158063 -75.03922482 162.47251313 -59 160 C-49.18544863 157.94667203 -40.17465198 154.94389308 -32 149 C-31.1646875 148.39542969 -30.329375 147.79085937 -29.46875 147.16796875 C-26.05350043 144.6011277 -23.38637156 142.57955733 -21 139 C-20.34 139 -19.68 139 -19 139 C-18.34 137.68 -17.68 136.36 -17 135 C-16.34 135 -15.68 135 -15 135 C-14.62875 133.6696875 -14.62875 133.6696875 -14.25 132.3125 C-12.96065232 128.89572865 -11.40019871 126.7202252 -9 124 C-4.06283904 124.52791932 -0.74684375 126.02729304 3.5 128.5625 C4.72364324 129.28699077 5.94761187 130.01093222 7.171875 130.734375 C7.79771484 131.10755859 8.42355469 131.48074219 9.06835938 131.86523438 C11.01426815 133.008382 12.97812105 134.11110996 14.953125 135.203125 C15.58927734 135.55689209 16.22542969 135.91065918 16.88085938 136.27514648 C18.66423281 137.2649001 20.44926304 138.25166668 22.234375 139.23828125 C25 141 25 141 27 144 C26.7645812 148.4729572 24.79608063 150.64470325 22 154 C21.41089844 155.07636719 20.82179688 156.15273438 20.21484375 157.26171875 C18.04974765 161.1150353 15.38936533 164.22566956 12.375 167.4375 C11.88515625 167.97826172 11.3953125 168.51902344 10.890625 169.07617188 C9.63959767 170.42803337 8.32430533 171.71983818 7 173 C6.34 173 5.68 173 5 173 C4.731875 173.639375 4.46375 174.27875 4.1875 174.9375 C3 177 3 177 0 178 C0 178.66 0 179.32 0 180 C-6.83411767 185.80347874 -14.62993419 190.0388616 -22.6875 193.875 C-23.45811768 194.24375244 -24.22873535 194.61250488 -25.02270508 194.99243164 C-30.5502967 197.54367288 -36.11442191 199.45301619 -42 201 C-42.72509766 201.20375244 -43.45019531 201.40750488 -44.19726562 201.61743164 C-52.07052148 203.53555955 -60.11235584 203.3368114 -68.16577148 203.31567383 C-70.66500104 203.31252832 -73.1630266 203.33598545 -75.66210938 203.36132812 C-93.96212687 203.43390501 -109.63792431 199.52479039 -125.9375 191 C-126.55238281 190.6800708 -127.16726563 190.3601416 -127.80078125 190.03051758 C-132.02241398 187.74629627 -135.39817652 185.12583318 -139 182 C-140.64408909 180.72691092 -142.28983697 179.45596019 -143.9375 178.1875 C-148.52881107 174.51858126 -152.37672407 170.61727198 -156 166 C-156.45358887 165.46963135 -156.90717773 164.9392627 -157.37451172 164.39282227 C-161.98067362 158.74139907 -164.32689776 152.8098617 -166.625 145.9375 C-167.01034912 144.78556152 -167.39569824 143.63362305 -167.79272461 142.44677734 C-176.81812817 114.53612445 -178.87929245 82.57177221 -171.49951172 53.96142578 C-171.06265088 52.24601035 -170.69885821 50.51232349 -170.34765625 48.77734375 C-168.96030246 42.18514634 -166.57998964 36.0050002 -164.125 29.75 C-163.79725586 28.90945068 -163.46951172 28.06890137 -163.13183594 27.20288086 C-159.89637008 19.20830722 -156.2766209 12.64934286 -149.6875 6.9375 C-148.72972656 6.09832031 -147.77195312 5.25914062 -146.78515625 4.39453125 C-145.86605469 3.60433594 -144.94695312 2.81414062 -144 2 C-142.54138765 0.70864842 -141.08301942 -0.582979 -139.625 -1.875 C-138.42536006 -2.92666673 -137.2166985 -3.96811646 -136 -5 C-135.31035156 -5.62132812 -134.62070312 -6.24265625 -133.91015625 -6.8828125 C-95.34249664 -34.94143197 -35.75492989 -28.65068238 0 0 Z " fill="#F3F5F6" transform="translate(565,420)"/>
<path d="M0 0 C-1.07894531 0.38929688 -2.15789062 0.77859375 -3.26953125 1.1796875 C-48.35212925 17.84097922 -87.09363903 50.21409174 -111 92 C-111.65484375 93.134375 -112.3096875 94.26875 -112.984375 95.4375 C-136.15325715 136.58543469 -144.11700275 186.44686751 -135.40576172 232.83496094 C-135.02720044 234.85486551 -134.70098084 236.88438492 -134.37890625 238.9140625 C-131.21525467 257.26717165 -123.90468599 274.2692449 -115.92041016 290.97314453 C-115 293 -115 293 -114 296 C-118.29 296 -122.58 296 -127 296 C-137.17559054 276.60030271 -143.88234883 257.58856139 -148 236 C-148.19650146 234.97221436 -148.39300293 233.94442871 -148.59545898 232.88549805 C-150.45531376 221.74885758 -150.43995077 210.57678913 -150.4375 199.3125 C-150.4385675 198.27153168 -150.43963501 197.23056335 -150.44073486 196.15805054 C-150.41620939 179.57962878 -149.29365199 164.08757116 -145 148 C-144.78069824 147.12069824 -144.56139648 146.24139648 -144.33544922 145.33544922 C-132.79454304 99.49168481 -103.42700836 56.52898212 -65 29 C-64.43168457 28.58733887 -63.86336914 28.17467773 -63.27783203 27.74951172 C-46.99004364 16.03453475 -29.07713438 7.15346556 -10 1 C-9.34483398 0.78230957 -8.68966797 0.56461914 -8.01464844 0.34033203 C-4.75506151 -0.683939 -3.326016 -1.108672 0 0 Z " fill="#F5F6F7" transform="translate(456,325)"/>
<path d="M0 0 C3.72614158 1.78237281 7.00755962 3.90330866 9.51171875 7.2421875 C9.51171875 8.5621875 9.51171875 9.8821875 9.51171875 11.2421875 C10.17171875 11.2421875 10.83171875 11.2421875 11.51171875 11.2421875 C14.07414769 18.92947432 12.0428096 25.88997121 9.51171875 33.2421875 C8.85171875 33.2421875 8.19171875 33.2421875 7.51171875 33.2421875 C7.26421875 33.8403125 7.01671875 34.4384375 6.76171875 35.0546875 C4.73595873 38.59976754 2.33177719 39.96883469 -1.48828125 41.2421875 C-17.27771903 42.37265194 -17.27771903 42.37265194 -23.48828125 37.2421875 C-28.47693983 32.364388 -30.36947288 27.63110829 -30.5546875 20.7890625 C-30.17048685 13.19818901 -27.47009696 8.00582157 -21.92578125 2.8671875 C-15.23838574 -1.59107617 -7.80999862 -2.37855531 0 0 Z " fill="#F9F7F4" transform="translate(503.48828125,489.7578125)"/>
<path d="M0 0 C3 3 6 6 9 9 C7.42352268 13.37679886 3.98287787 15.77967055 0.5 18.625 C-10.19915859 27.4228431 -10.19915859 27.4228431 -19 38 C-22.44428265 36.55218207 -24.36130962 34.72305391 -26.75 31.875 C-27.36359375 31.15054687 -27.9771875 30.42609375 -28.609375 29.6796875 C-29.06828125 29.12539063 -29.5271875 28.57109375 -30 28 C-25.85579716 22.73574233 -21.33520545 18.72141701 -16.1015625 14.5546875 C-10.47640497 10.00412147 -5.26998341 4.95160604 0 0 Z " fill="#FBECB2" transform="translate(572,429)"/>
<path d="M0 0 C2.58559174 2.28156608 3.73155677 4.32217177 4.94140625 7.53515625 C5.45018311 8.86764404 5.45018311 8.86764404 5.96923828 10.22705078 C6.30938965 11.14212402 6.64954102 12.05719727 7 13 C7.48895752 14.28946533 7.48895752 14.28946533 7.98779297 15.60498047 C8.64185737 17.33117443 9.29320397 19.05840051 9.94189453 20.78662109 C12.68328609 28.08579461 15.46973377 35.29776235 18.79296875 42.35546875 C23.01008761 51.59491687 26.50083407 61.190511 29.99584961 70.72143555 C30.95037415 73.30626296 31.9065354 75.81899023 33.171875 78.26953125 C34 80 34 80 34 83 C34.825 82.67 35.65 82.34 36.5 82 C41.99736057 80.42932555 46.64766065 80.02366547 51.8125 82.5625 C55.56630303 85.02485703 56.91967184 87.60666546 58 92 C57.79858199 96.69706788 56.60305928 100.09541108 54 104 C49.77160115 106.81893257 46.03286478 107.28221672 41 107 C36.82868714 105.99155074 34.43717967 104.6557695 32 101 C32 100.01 32 99.02 32 98 C28.80512743 97.0798427 25.80014845 96.79117732 22.48324585 96.62745667 C21.36155502 96.57007324 20.2398642 96.51268982 19.08418274 96.4535675 C17.85805771 96.3948497 16.63193268 96.3361319 15.36865234 96.27563477 C13.38152358 96.17554368 11.39439494 96.0754503 9.40727067 95.97527015 C7.27396605 95.8684293 5.14057465 95.76349632 3.00715256 95.65902901 C-1.43824081 95.44101273 -5.88325184 95.21580963 -10.32821655 94.98924255 C-22.9667367 94.34605481 -35.60565422 93.71106013 -48.24511719 93.08666992 C-55.22814663 92.74164555 -62.2108042 92.38989585 -69.19312131 92.03073734 C-73.61451901 91.80369925 -78.03622888 91.58507985 -82.45834756 91.37257206 C-85.8484426 91.20721353 -89.23787191 91.02955527 -92.62744141 90.85375977 C-93.8576149 90.79706619 -95.08778839 90.74037262 -96.35523987 90.68196106 C-97.47129105 90.62175781 -98.58734222 90.56155457 -99.73721313 90.49952698 C-100.71096201 90.45104897 -101.68471088 90.40257097 -102.6879673 90.35262394 C-105 90 -105 90 -107 88 C-89.35419127 88.67173315 -71.71468308 89.45796829 -54.07641602 90.30224609 C-50.60421608 90.46841493 -47.13192556 90.63260429 -43.65960979 90.79633236 C-19.3237023 91.94551376 -19.3237023 91.94551376 -10.078125 92.56640625 C-4.99488959 92.90208181 0.07630437 93.11935087 5.16796875 93.24609375 C5.83304947 93.26286163 6.49813019 93.27962952 7.18336487 93.29690552 C9.87451331 93.36262298 12.56561065 93.42568872 15.25708008 93.47680664 C17.26922566 93.51653099 19.28111463 93.56864502 21.29296875 93.62109375 C23.04903442 93.65867798 23.04903442 93.65867798 24.84057617 93.69702148 C27.99485754 93.99950686 30.20981205 94.51204542 33 96 C34.0650015 97.96615661 35.06833174 99.96726926 36 102 C40.25929566 104.83953044 44.00382943 104.73987876 49 104 C52.33333333 102.33333333 52.33333333 102.33333333 54 99 C54.98876625 93.97377154 54.7769173 90.29486216 52.125 85.875 C47.71562381 83.22937429 44.0206378 83.34978625 39 84 C36.02019799 84.85060013 36.02019799 84.85060013 34 86 C31.50765169 82.14881223 29.83827829 78.21168092 28.30078125 73.9140625 C25.10380206 65.19258617 21.68182531 56.5695058 18.22119141 47.94979858 C17.16642415 45.32250263 16.11431331 42.6941536 15.0625 40.06567383 C12.0592722 32.56822559 9.04505068 25.0762588 5.95703125 17.61328125 C5.53204346 16.58605957 5.10705566 15.55883789 4.66918945 14.50048828 C3.91373585 12.68291961 3.15348617 10.86733363 2.38745117 9.05419922 C0 3.32407879 0 3.32407879 0 0 Z " fill="#51524C" transform="translate(721,436)"/>
<path d="M0 0 C2.2776477 -0.00961134 4.55435386 -0.04065861 6.83178711 -0.07226562 C32.66009588 -0.2587207 61.85955996 7.50424747 83.37670898 22.24023438 C84.36670898 23.72523438 84.36670898 23.72523438 85.37670898 25.24023438 C81.43550189 24.67720479 78.62583668 23.56103987 75.37670898 21.24023438 C75.37670898 20.58023437 75.37670898 19.92023438 75.37670898 19.24023438 C74.82756836 19.11946533 74.27842773 18.99869629 73.71264648 18.87426758 C71.03534608 18.14757975 68.56653887 17.15391505 66.00170898 16.09570312 C52.5863483 10.67095152 39.71388096 6.32176765 25.37670898 4.24023438 C24.2802002 4.06661377 23.18369141 3.89299316 22.05395508 3.71411133 C15.78625999 2.90641008 9.50031835 2.99639624 3.18920898 2.99023438 C2.47628693 2.98922729 1.76336487 2.98822021 1.02883911 2.98718262 C-10.73238794 2.99840249 -22.11071836 3.71101724 -33.62329102 6.24023438 C-34.33275879 6.39540527 -35.04222656 6.55057617 -35.77319336 6.71044922 C-42.45423665 8.22584886 -48.86703638 9.96788169 -54.88500977 13.31835938 C-56.62329102 14.24023438 -56.62329102 14.24023438 -60.37329102 15.55273438 C-67.85796201 18.24898396 -74.57410223 22.91838844 -81.24829102 27.17773438 C-84.62329102 29.24023438 -84.62329102 29.24023438 -86.62329102 29.24023438 C-86.62329102 29.90023438 -86.62329102 30.56023437 -86.62329102 31.24023438 C-88.59058011 32.8806416 -90.56305223 34.41230552 -92.62329102 35.92773438 C-93.82518504 36.83346713 -95.0257092 37.74102053 -96.22485352 38.65039062 C-96.81041016 39.09398926 -97.3959668 39.53758789 -97.99926758 39.99462891 C-103.61904369 44.30492622 -108.37908699 48.97495652 -112.94750977 54.37304688 C-115.29111574 56.98433745 -117.86061199 59.08399709 -120.62329102 61.24023438 C-120.49829102 59.55273438 -120.49829102 59.55273438 -119.62329102 57.24023438 C-118.21888294 56.03645602 -116.80602364 54.84069308 -115.34594727 53.70507812 C-113.48380109 52.12162049 -112.00190636 50.42829902 -110.43579102 48.55273438 C-103.97230009 40.98816203 -96.13464672 33.48783714 -87.62329102 28.24023438 C-86.96329102 28.24023438 -86.30329102 28.24023438 -85.62329102 28.24023438 C-85.12829102 26.75523437 -85.12829102 26.75523437 -84.62329102 25.24023438 C-83.63329102 25.24023438 -82.64329102 25.24023438 -81.62329102 25.24023438 C-81.62329102 24.58023437 -81.62329102 23.92023438 -81.62329102 23.24023438 C-78.75397608 21.80557691 -75.88398878 20.37257229 -73.01000977 18.94726562 C-70.95572296 17.91182925 -68.91273746 16.85293694 -66.89282227 15.75195312 C-46.24681557 4.69904045 -23.22703352 0.05894563 0 0 Z " fill="#123F5D" transform="translate(546.623291015625,346.759765625)"/>
<path d="M0 0 C3.34905453 3.34905453 3.89470285 5.49378854 5 10 C9.29 10 13.58 10 18 10 C15.10492782 12.97549085 12.33810482 15.49642139 9 18 C9.66 21.96 10.32 25.92 11 30 C6 28 6 28 4 26.25 C3.34 25.8375 2.68 25.425 2 25 C-0.49004504 25.56076801 -0.49004504 25.56076801 -3 27 C-4.093125 27.53625 -5.18625 28.0725 -6.3125 28.625 C-7.6428125 29.305625 -7.6428125 29.305625 -9 30 C-8.835 29.20335937 -8.67 28.40671875 -8.5 27.5859375 C-7.97974528 24.24492669 -7.66040003 21.37020725 -8 18 C-9.88461139 15.73331477 -11.65993764 14.53211077 -14.21484375 13.0859375 C-14.80394531 12.72757812 -15.39304687 12.36921875 -16 12 C-16 11.34 -16 10.68 -16 10 C-10.06 9.505 -10.06 9.505 -4 9 C-2.68 6.03 -1.36 3.06 0 0 Z " fill="#1ACBD7" transform="translate(347,467)"/>
<path d="M0 0 C2.96052484 3.36423277 3.92289822 6.69159287 5 11 C8.96 11 12.92 11 17 11 C14.78071806 13.90802461 13.07030857 15.95312762 10 18 C10.33 21.96 10.66 25.92 11 30 C6 28 6 28 3 26 C-1.93954276 26.21476273 -4.32210655 27.83292508 -8 31 C-8.66 31 -9.32 31 -10 31 C-9.34 27.04 -8.68 23.08 -8 19 C-9.32 18.05125 -10.64 17.1025 -12 16.125 C-14.25 14.5078125 -14.25 14.5078125 -16 13 C-16 12.34 -16 11.68 -16 11 C-12.04 11 -8.08 11 -4 11 C-3.2884375 8.5559375 -3.2884375 8.5559375 -2.5625 6.0625 C-1.125 1.125 -1.125 1.125 0 0 Z " fill="#16BCCD" transform="translate(367,405)"/>
<path d="M0 0 C3.27247743 0.70358265 5.10709574 2.05080158 7.34375 4.50390625 C9.19237688 8.20116 8.81962094 12.46852067 8.34375 16.50390625 C6.54728146 19.4381382 5.3996429 20.9759598 2.34375 22.50390625 C-2.45562735 23.02206911 -6.39034126 23.21597992 -10.65625 20.81640625 C-13.58368798 17.43155609 -14.65625 15.12582192 -14.65625 10.62890625 C-12.18798515 2.91557859 -8.21501477 -0.58148448 0 0 Z " fill="#F7D687" transform="translate(767.65625,518.49609375)"/>
<path d="M0 0 C0.66 0 1.32 0 2 0 C5 6.625 5 6.625 5 10 C9.29 10 13.58 10 18 10 C18 10.66 18 11.32 18 12 C15.46301176 14.18588719 12.72203468 16.04353757 10 18 C10.66 21.96 11.32 25.92 12 30 C7 28 7 28 5 26.3125 C3.07621123 24.77768967 3.07621123 24.77768967 0.6875 25.0625 C-2.85540622 26.29839752 -5.79297334 28.05063085 -9 30 C-8.77441406 29.20335937 -8.54882812 28.40671875 -8.31640625 27.5859375 C-7.54294227 24.29170232 -6.97844352 21.38867873 -7 18 C-8.8688971 15.20433476 -11.08192993 13.62273165 -14 12 C-10.91111478 9.94074319 -10.29064073 9.7609626 -6.8125 9.875 C-4.9253125 9.936875 -4.9253125 9.936875 -3 10 C-2.01 6.7 -1.02 3.4 0 0 Z " fill="#14BCC9" transform="translate(359,583)"/>
<path d="M0 0 C0.66 0 1.32 0 2 0 C2.50559908 1.43554025 3.0042749 2.8735202 3.5 4.3125 C3.7784375 5.11300781 4.056875 5.91351562 4.34375 6.73828125 C5 9 5 9 5 12 C8.96 12 12.92 12 17 12 C12.25 17.875 12.25 17.875 10 19 C9.9015298 23.13574827 10.22596442 26.93631321 11 31 C8.25648576 30.00928652 6.21135401 29.18493476 4 27.25 C3.34 26.8375 2.68 26.425 2 26 C-0.49004504 26.56076801 -0.49004504 26.56076801 -3 28 C-4.093125 28.53625 -5.18625 29.0725 -6.3125 29.625 C-7.6428125 30.305625 -7.6428125 30.305625 -9 31 C-8.76990234 29.80503906 -8.76990234 29.80503906 -8.53515625 28.5859375 C-7.39277932 22.44822346 -7.39277932 22.44822346 -9.4921875 16.90234375 C-11.26459719 15.45380812 -13.06677046 14.21971839 -15 13 C-15 12.67 -15 12.34 -15 12 C-11.04 12 -7.08 12 -3 12 C-2.87625 11.13375 -2.7525 10.2675 -2.625 9.375 C-2.01941879 6.10486147 -1.11693965 3.12743101 0 0 Z " fill="#15C0CE" transform="translate(346,530)"/>
<path d="M0 0 C2.17854707 3.2678206 3.49760034 6.38058265 5 10 C10.445 10.495 10.445 10.495 16 11 C14.12244138 14.75511724 13.37972575 15.88767141 10 18 C9.34 18 8.68 18 8 18 C9.485 24.435 9.485 24.435 11 31 C8.81901042 29.66536458 6.63802083 28.33072917 4.45703125 26.99609375 C1.47304607 25.78637003 0.03048514 26.02700143 -3 27 C-4.35622245 27.96873032 -5.69417053 28.96434215 -7 30 C-7.66 30 -8.32 30 -9 30 C-8.835 29.28714844 -8.67 28.57429688 -8.5 27.83984375 C-7.96460158 24.73202324 -7.66666463 22.14347911 -8 19 C-10.26482495 16.02322552 -12.95259189 14.12051593 -16 12 C-16 11.67 -16 11.34 -16 11 C-12.04 11 -8.08 11 -4 11 C-3.2884375 8.5559375 -3.2884375 8.5559375 -2.5625 6.0625 C-1.125 1.125 -1.125 1.125 0 0 Z " fill="#0C8CAA" transform="translate(409,362)"/>
<path d="M0 0 C0.99 0.33 1.98 0.66 3 1 C2.53595593 6.12730666 0.98667355 8.86607729 -2.1875 12.875 C-3.01315678 13.9308833 -3.83867752 14.98687297 -4.6640625 16.04296875 C-5.43492187 17.01878906 -6.20578125 17.99460937 -7 19 C-8.02548285 20.39242103 -9.04704792 21.787747 -10.0625 23.1875 C-12.84344393 26.89798596 -15.88496406 30.33761685 -18.99609375 33.7734375 C-20.87257064 35.85841183 -22.68660304 37.98527421 -24.5 40.125 C-27.99917913 44.14946006 -31.90435915 47.59583098 -36 51 C-36.99 50.505 -36.99 50.505 -38 50 C-37.57291748 49.58862793 -37.14583496 49.17725586 -36.70581055 48.75341797 C-22.77971817 35.27028411 -11.49701136 21.25784406 -1 5 C-2.051875 5.84304688 -2.051875 5.84304688 -3.125 6.703125 C-12.44261627 14.14709017 -21.64152597 21.03785506 -32 27 C-32.56912109 27.33241699 -33.13824219 27.66483398 -33.72460938 28.00732422 C-41.28878807 32.39177741 -49.00338525 35.97843846 -57.1875 39.0625 C-58.0017041 39.37388916 -58.8159082 39.68527832 -59.65478516 40.00610352 C-60.42226074 40.28381592 -61.18973633 40.56152832 -61.98046875 40.84765625 C-62.99983521 41.2190271 -62.99983521 41.2190271 -64.03979492 41.59790039 C-66.33545412 42.06881217 -67.79374599 41.72166036 -70 41 C-68.20755859 40.31164062 -68.20755859 40.31164062 -66.37890625 39.609375 C-41.00268232 30.08367421 -41.00268232 30.08367421 -18.56640625 15.21484375 C-17 14 -17 14 -15 14 C-15 13.34 -15 12.68 -15 12 C-10.57896404 7.44116552 -5.37084237 3.36994031 0 0 Z " fill="#15364D" transform="translate(659,622)"/>
<path d="M0 0 C15.56342258 0.64918777 30.78430019 1.7957563 46.0625 4.9375 C47.22265625 5.17400269 47.22265625 5.17400269 48.40625 5.4152832 C52.7614257 6.35642007 56.84298264 7.58724405 60.98852539 9.21704102 C63.08436848 10.03284012 65.19593519 10.77329802 67.32421875 11.5 C68.04287109 11.7475 68.76152344 11.995 69.50195312 12.25 C70.96947291 12.75359928 72.43824902 13.25355112 73.90820312 13.75 C77.93382602 15.14390369 81.38355035 16.70997843 85 19 C87.09781419 20.03382477 89.20265934 21.05344577 91.3125 22.0625 C96.98811042 24.84684879 102.43091367 27.93391371 107.8125 31.25 C108.86207886 31.88627319 108.86207886 31.88627319 109.93286133 32.53540039 C114.87911748 35.63735245 114.87911748 35.63735245 116 39 C111.35001534 37.38417521 107.48538214 34.89566778 103.375 32.25 C91.26376785 24.49694584 91.26376785 24.49694584 78.12719727 18.7578125 C75.88226072 17.95805547 73.69936662 17.05411263 71.5 16.13671875 C65.78964218 13.84568372 59.98564584 12.08894672 54.0625 10.4375 C52.97509521 10.13376465 51.88769043 9.8300293 50.76733398 9.51708984 C38.03315353 6.06068277 25.15409904 4.02527804 12 3 C10.92363281 2.90847656 9.84726562 2.81695312 8.73828125 2.72265625 C5.82597322 2.47573582 2.91326883 2.23526398 0 2 C0 1.34 0 0.68 0 0 Z " fill="#10394F" transform="translate(492,308)"/>
<path d="M0 0 C-1.07894531 0.38929688 -2.15789062 0.77859375 -3.26953125 1.1796875 C-18.97642152 6.98452334 -33.69192645 14.24263992 -47.36987305 23.95239258 C-51.70579003 27 -51.70579003 27 -55 27 C-54.67 26.01 -54.34 25.02 -54 24 C-54.66 23.67 -55.32 23.34 -56 23 C-42.13455811 14.28111951 -28.15902921 7.21315779 -12.625 1.9375 C-11.71476074 1.62603027 -10.80452148 1.31456055 -9.86669922 0.99365234 C-9.0160791 0.71602051 -8.16545898 0.43838867 -7.2890625 0.15234375 C-6.53318848 -0.09523682 -5.77731445 -0.34281738 -4.99853516 -0.59790039 C-3 -1 -3 -1 0 0 Z " fill="#E9EBED" transform="translate(456,325)"/>
<path d="M0 0 C3.10512871 2.73547053 3.90920668 4.25633787 4.625 8.3125 C4.31437762 14.21432524 2.80292022 18.13457978 -1.375 22.3125 C-2.365 21.9825 -3.355 21.6525 -4.375 21.3125 C-3.570625 20.549375 -2.76625 19.78625 -1.9375 19 C1.08803377 15.82687922 1.53756409 14.25680783 1.9375 9.9375 C1.57384973 5.71915686 0.57615008 4.26365008 -2.375 1.3125 C-6.11071251 -0.55535626 -10.30653475 -0.22400091 -14.375 0.3125 C-17.70833333 1.97916667 -17.70833333 1.97916667 -19.375 5.3125 C-20.17749475 10.57617523 -19.91685584 15.5465203 -17.375 20.3125 C-21.75501583 24.95357637 -26.38959522 28.99506057 -31.4140625 32.921875 C-35.79033916 36.45522766 -39.99591455 40.18154482 -44.19726562 43.92041016 C-44.81021484 44.45972168 -45.42316406 44.9990332 -46.0546875 45.5546875 C-46.87042236 46.27954346 -46.87042236 46.27954346 -47.70263672 47.01904297 C-49.49984299 48.4090574 -51.31640672 49.3619918 -53.375 50.3125 C-52.12007047 46.54771141 -50.54402481 45.61869333 -47.4375 43.1875 C-43.59516451 40.12556124 -39.87155784 37.00773513 -36.25 33.6875 C-32.40066512 30.16406727 -28.41504541 26.97538998 -24.1875 23.91796875 C-22.23886822 22.19191775 -21.36835804 20.69759405 -20.375 18.3125 C-21.035 17.3225 -21.695 16.3325 -22.375 15.3125 C-22.60546875 12.9375 -22.60546875 12.9375 -22.5625 10.3125 C-22.55605469 9.44625 -22.54960938 8.58 -22.54296875 7.6875 C-22.375 5.3125 -22.375 5.3125 -21.375 2.3125 C-20.715 2.3125 -20.055 2.3125 -19.375 2.3125 C-19.045 1.3225 -18.715 0.3325 -18.375 -0.6875 C-11.79244445 -3.37425737 -6.36288451 -3.18144225 0 0 Z " fill="#7D684B" transform="translate(692.375,320.6875)"/>
<path d="M0 0 C0.66 0 1.32 0 2 0 C0.46321578 4.21156688 -2.64659703 6.36094153 -6.125 8.9375 C-6.99862183 9.59564697 -6.99862183 9.59564697 -7.88989258 10.26708984 C-19.59484587 19 -19.59484587 19 -23 19 C-23 19.66 -23 20.32 -23 21 C-29.12951616 25.4471596 -36.18006423 28.75241154 -43 32 C-43.82886719 32.39960937 -44.65773438 32.79921875 -45.51171875 33.2109375 C-73.60413235 46.39631548 -73.60413235 46.39631548 -86 46 C-83.83400955 43.83400955 -82.83729893 43.50078636 -79.95703125 42.703125 C-79.138396 42.47012695 -78.31976074 42.23712891 -77.47631836 41.99707031 C-76.5972583 41.75053711 -75.71819824 41.50400391 -74.8125 41.25 C-48.02571384 33.42298641 -19.99306005 19.99306005 0 0 Z " fill="#14374D" transform="translate(619,673)"/>
<path d="M0 0 C2.58559174 2.28156608 3.73155677 4.32217177 4.94140625 7.53515625 C5.45018311 8.86764404 5.45018311 8.86764404 5.96923828 10.22705078 C6.47946533 11.59966064 6.47946533 11.59966064 7 13 C7.32597168 13.85964355 7.65194336 14.71928711 7.98779297 15.60498047 C8.64185737 17.33117443 9.29320397 19.05840051 9.94189453 20.78662109 C12.6786639 28.07348766 15.45748086 35.2754509 18.77734375 42.3203125 C20.34621614 45.7587996 21.77588825 49.24451176 23.1875 52.75 C23.67605469 53.96171875 24.16460938 55.1734375 24.66796875 56.421875 C25.97365521 59.92923218 27.0236831 63.39086644 28 67 C27.34 67 26.68 67 26 67 C25.53215088 65.84290527 25.06430176 64.68581055 24.58227539 63.49365234 C22.804108 59.09616663 21.02524791 54.69896133 19.24630737 50.30178833 C18.06808636 47.38881145 16.89059195 44.47554156 15.71313477 41.56225586 C10.82612937 29.47540684 10.82612937 29.47540684 5.8671875 17.41796875 C5.44429443 16.39719238 5.02140137 15.37641602 4.58569336 14.32470703 C3.84108691 12.53340843 3.09215929 10.74389757 2.33813477 8.95654297 C0 3.32872755 0 3.32872755 0 0 Z " fill="#1E3543" transform="translate(721,436)"/>
<path d="M0 0 C17.30858037 0.7219825 34.05983071 2.30127308 51 6 C51.495 7.485 51.495 7.485 52 9 C51.13955078 8.83564453 51.13955078 8.83564453 50.26171875 8.66796875 C37.6066937 6.30595345 24.84426258 4.00112826 12 3 C10.92363281 2.90847656 9.84726562 2.81695312 8.73828125 2.72265625 C5.82597322 2.47573582 2.91326883 2.23526398 0 2 C0 1.34 0 0.68 0 0 Z " fill="#113E5A" transform="translate(492,308)"/>
<path d="M0 0 C4.92746769 0.2761081 8.31137026 2.06204463 12.5 4.5625 C13.72118877 5.28283255 14.94254842 6.00287548 16.1640625 6.72265625 C16.78958008 7.09535645 17.41509766 7.46805664 18.05957031 7.85205078 C21.30875172 9.77425146 24.59333653 11.63399748 27.875 13.5 C29.06005875 14.17679814 30.24496999 14.8538547 31.4296875 15.53125 C32.27789063 16.0159375 33.12609375 16.500625 34 17 C34 17.99 34 18.98 34 20 C30.38842724 17.91926635 26.77719205 15.83794837 23.16625977 13.75610352 C21.93946294 13.04891404 20.71257625 12.34188043 19.4855957 11.63500977 C17.71541709 10.61516264 15.94556931 9.59474343 14.17578125 8.57421875 C13.11270752 7.96151123 12.04963379 7.34880371 10.9543457 6.7175293 C9.03786057 5.60336742 7.15014808 4.43755842 5.30151367 3.21411133 C4.54201416 2.81345459 3.78251465 2.41279785 3 2 C-0.53233755 3.17744585 -0.86308075 3.95605641 -2.6875 7.0625 C-3.12449219 7.79597656 -3.56148437 8.52945313 -4.01171875 9.28515625 C-4.50091797 10.13400391 -4.50091797 10.13400391 -5 11 C-5.33 10.34 -5.66 9.68 -6 9 C-4.21293716 5.54912004 -2.74146784 2.74146784 0 0 Z " fill="#274057" transform="translate(556,544)"/>
<path d="M0 0 C7.57089406 0.29747512 13.56973992 2.06550303 20.4375 5.1875 C21.35184814 5.59242676 22.26619629 5.99735352 23.20825195 6.41455078 C40.89262428 14.33893643 40.89262428 14.33893643 44 19 C40.05879291 18.43697042 37.2491277 17.3208055 34 15 C34 14.34 34 13.68 34 13 C33.19369141 12.82102173 33.19369141 12.82102173 32.37109375 12.63842773 C29.51689418 11.86992157 26.82173043 10.84608717 24.0625 9.78515625 C22.92039062 9.34623047 21.77828125 8.90730469 20.6015625 8.45507812 C19.41304687 7.99552734 18.22453125 7.53597656 17 7.0625 C15.81148437 6.60681641 14.62296875 6.15113281 13.3984375 5.68164062 C3.7382877 1.95823074 3.7382877 1.95823074 0 0 Z " fill="#18354F" transform="translate(588,353)"/>
<path d="M0 0 C0.5878125 0.144375 1.175625 0.28875 1.78125 0.4375 C13.06493628 2.77205578 24.53557058 2.18078309 36 2 C35.67 2.66 35.34 3.32 35 4 C23.06135733 6.43645769 10.5512791 5.67540699 -1 2 C-0.67 1.34 -0.34 0.68 0 0 Z " fill="#0C2C45" transform="translate(475,720)"/>
<path d="M0 0 C2.56278699 -0.05420701 5.12441483 -0.09377007 7.6875 -0.125 C8.40873047 -0.14175781 9.12996094 -0.15851562 9.87304688 -0.17578125 C14.01789969 -0.21363379 17.35492458 -0.06531478 21 2 C22.0650015 3.96615661 23.06833174 5.96726926 24 8 C28.25040289 10.83360193 32.01153346 10.41305774 37 10 C39.97980201 9.14939987 39.97980201 9.14939987 42 8 C41 11 41 11 38.5625 12.25 C33.83768009 13.24469893 29.68554485 13.22401088 25 12 C21.875 9.625 21.875 9.625 20 7 C20 6.01 20 5.02 20 4 C13.44723293 1.71415102 6.89598561 1.39405632 0 1 C0 0.67 0 0.34 0 0 Z " fill="#A58054" transform="translate(733,530)"/>
<path d="M0 0 C4.29358567 3.61051522 8.41871966 7.33785989 12.5 11.1875 C17.73731041 16.0882049 23.32707218 20.34295301 29.1875 24.47143555 C33.90619948 27.81239895 33.90619948 27.81239895 35 30 C23.58699662 26.11159185 13.57869948 15.21284317 5 7 C4.0615625 6.10925781 3.123125 5.21851563 2.15625 4.30078125 C0 2 0 2 0 0 Z " fill="#122E45" transform="translate(429,615)"/>
<path d="M0 0 C0 3 0 3 -2.5625 6 C-6.37786599 9.65016457 -10.53301028 12.83359757 -14.75 16 C-15.41201416 16.5053125 -16.07402832 17.010625 -16.75610352 17.53125 C-18.44558337 18.77139324 -20.2185655 19.89601242 -22 21 C-22.99 20.67 -23.98 20.34 -25 20 C-23.71283353 18.99421411 -22.42011342 17.99553202 -21.125 17 C-20.40570312 16.443125 -19.68640625 15.88625 -18.9453125 15.3125 C-17 14 -17 14 -15 14 C-15 13.34 -15 12.68 -15 12 C-10.53320578 7.39398102 -5.2706525 3.6235736 0 0 Z " fill="#12293E" transform="translate(659,622)"/>
<path d="M0 0 C0.33 0.66 0.66 1.32 1 2 C-0.55524738 4.40081878 -2.11879199 6.79549843 -3.6875 9.1875 C-4.12255859 9.86103516 -4.55761719 10.53457031 -5.00585938 11.22851562 C-7.68118366 15.29104509 -10.43243401 18.68955588 -14 22 C-12.97919266 19.44798165 -11.95780267 16.90153956 -10.875 14.375 C-9.82714732 11.95267129 -9.82714732 11.95267129 -10 9 C-7.8125 6.73828125 -7.8125 6.73828125 -5 4.3125 C-4.071875 3.50425781 -3.14375 2.69601562 -2.1875 1.86328125 C-1.1046875 0.94095703 -1.1046875 0.94095703 0 0 Z " fill="#1CE2E7" transform="translate(658,625)"/>
<path d="M0 0 C0.66 0.33 1.32 0.66 2 1 C-4.62163979 7.18250835 -11.31503054 13.16664523 -18.375 18.8515625 C-22.35916865 22.11241482 -26.18553422 25.54343471 -30 29 C-30 26 -30 26 -27.47265625 23.328125 C-26.34444291 22.29273827 -25.20712374 21.26721556 -24.0625 20.25 C-23.46928955 19.71286377 -22.8760791 19.17572754 -22.26489258 18.62231445 C-18.33630606 15.09780504 -14.29763398 11.77400814 -10.078125 8.6015625 C-6.57499767 5.90178392 -3.29188667 2.95103737 0 0 Z " fill="#2B3F50" transform="translate(607,397)"/>
<path d="M0 0 C0.33 0.99 0.66 1.98 1 3 C-0.11724703 4.65990988 -1.24196658 6.31911168 -2.48046875 7.890625 C-4.16230969 10.13277209 -4.16230969 10.13277209 -5.81640625 13.33203125 C-7.98297547 17.19089583 -10.70393862 20.25152766 -13.75 23.4375 C-14.25660156 23.97826172 -14.76320313 24.51902344 -15.28515625 25.07617188 C-16.51740699 26.38979766 -17.75784419 27.6957364 -19 29 C-19.66 28.67 -20.32 28.34 -21 28 C-20.45472656 27.44054687 -19.90945313 26.88109375 -19.34765625 26.3046875 C-13.70392337 20.30400057 -9.25909213 14.09200622 -4.9453125 7.1015625 C-3.39255025 4.62587329 -1.79966174 2.29768134 0 0 Z " fill="#294256" transform="translate(591,564)"/>
<path d="M0 0 C5.82798403 0.88362961 11.56133353 2.15904887 17.3125 3.4375 C18.32634766 3.65470703 19.34019531 3.87191406 20.38476562 4.09570312 C21.34705078 4.31033203 22.30933594 4.52496094 23.30078125 4.74609375 C24.17903564 4.93872803 25.05729004 5.1313623 25.9621582 5.32983398 C26.97088989 5.66156616 26.97088989 5.66156616 28 6 C28.33 6.66 28.66 7.32 29 8 C22.69896332 7.69706554 16.67908859 6.60017725 10.5625 5.125 C9.86447266 4.96354492 9.16644531 4.80208984 8.44726562 4.63574219 C4.86727171 3.7381293 2.26958828 3.02036463 0 0 Z " fill="#12283C" transform="translate(415,712)"/>
<path d="M0 0 C0.66 0.33 1.32 0.66 2 1 C-3.72632093 7.87435146 -9.4888212 13.16315914 -17 18 C-17.60199219 18.44601562 -18.20398438 18.89203125 -18.82421875 19.3515625 C-20.375 20.5 -20.375 20.5 -23 22 C-25.1640625 21.59375 -25.1640625 21.59375 -27 21 C-26.23816406 20.57589844 -25.47632813 20.15179687 -24.69140625 19.71484375 C-13.04941739 13.38068109 -13.04941739 13.38068109 -4 4 C-3.34 4 -2.68 4 -2 4 C-1.34 2.68 -0.68 1.36 0 0 Z " fill="#324861" transform="translate(548,555)"/>
<path d="M0 0 C6.97402671 2.32467557 11.94566239 6.80905867 17 12 C17.763125 12.556875 18.52625 13.11375 19.3125 13.6875 C19.869375 14.120625 20.42625 14.55375 21 15 C21 15.66 21 16.32 21 17 C21.66 17 22.32 17 23 17 C23.66 18.65 24.32 20.3 25 22 C24.57807373 21.63793457 24.15614746 21.27586914 23.72143555 20.90283203 C20.61679436 18.24000023 17.5094103 15.5805393 14.39453125 12.9296875 C13.20052083 11.91145833 12.00651042 10.89322917 10.8125 9.875 C10.20986328 9.36324219 9.60722656 8.85148437 8.98632812 8.32421875 C5.8642764 5.65796602 2.85302843 2.95922056 0 0 Z " fill="#113345" transform="translate(608,347)"/>
<path d="M0 0 C0 0.99 0 1.98 0 3 C-1.98 3.99 -1.98 3.99 -4 5 C-4 5.66 -4 6.32 -4 7 C-5.96919166 8.55494097 -7.92355263 9.9764834 -10 11.375 C-10.59216309 11.7776709 -11.18432617 12.1803418 -11.79443359 12.59521484 C-16.05500224 15.45301246 -20.23335006 18.05803151 -25 20 C-25.99 19.67 -26.98 19.34 -28 19 C-27.33355469 18.6596875 -26.66710937 18.319375 -25.98046875 17.96875 C-16.53645037 13.00238509 -8.06359926 6.97392368 0 0 Z " fill="#203B4C" transform="translate(569,593)"/>
<path d="M0 0 C0.33 0 0.66 0 1 0 C1.10546143 0.60360352 1.21092285 1.20720703 1.31958008 1.82910156 C4.13555028 18.02784641 4.13555028 18.02784641 8 34 C7.34 34 6.68 34 6 34 C5.79503906 33.28972656 5.59007812 32.57945312 5.37890625 31.84765625 C5.10949219 30.92855469 4.84007812 30.00945313 4.5625 29.0625 C4.29566406 28.14597656 4.02882813 27.22945312 3.75390625 26.28515625 C3.20973949 24.0597507 3.20973949 24.0597507 2 23 C0.55728395 15.33359646 -0.26876696 7.79424172 0 0 Z " fill="#142A41" transform="translate(280,545)"/>
<path d="M0 0 C7.15801225 5.82628904 13.52591766 12.4382985 20 19 C15.66649477 19 13.13973214 16.87418265 10 14 C8.8125 11.3125 8.8125 11.3125 8 9 C5.98264795 7.65589738 5.98264795 7.65589738 4 7 C4 6.34 4 5.68 4 5 C3.01 4.67 2.02 4.34 1 4 C0.3125 1.9375 0.3125 1.9375 0 0 Z " fill="#102A42" transform="translate(327,652)"/>
<path d="M0 0 C7.48291572 6.15034169 7.48291572 6.15034169 10 10 C9.34 10 8.68 10 8 10 C9.98 12.97 11.96 15.94 14 19 C13.67 19.66 13.34 20.32 13 21 C0 3.4516129 0 3.4516129 0 0 Z " fill="#10344C" transform="translate(406,583)"/>
<path d="M0 0 C0.66 0.33 1.32 0.66 2 1 C-0.12293902 2.81496336 -2.24822125 4.62704594 -4.375 6.4375 C-5.27992188 7.2119043 -5.27992188 7.2119043 -6.203125 8.00195312 C-10.7734375 11.88671875 -10.7734375 11.88671875 -13 13 C-11.41037341 8.96479403 -9.71767682 4.98188718 -8 1 C-7.34 1 -6.68 1 -6 1 C-6 1.99 -6 2.98 -6 4 C-4.02 2.68 -2.04 1.36 0 0 Z " fill="#1A4054" transform="translate(423,419)"/>
<path d="M0 0 C-2.52142586 2.52142586 -4.84521359 3.20289248 -8.1875 4.4375 C-12.84933841 6.18439732 -17.44708146 7.9882453 -22 10 C-22 9.34 -22 8.68 -22 8 C-19.730384 6.85170023 -17.45939222 5.70628022 -15.1875 4.5625 C-14.54490234 4.23701172 -13.90230469 3.91152344 -13.24023438 3.57617188 C-8.59378086 1.24090767 -5.21081502 -0.14083284 0 0 Z " fill="#103854" transform="translate(497,357)"/>
<path d="M0 0 C4.44410514 0.94623145 7.82911108 3.05482703 11.6875 5.375 C12.37650391 5.77460938 13.06550781 6.17421875 13.77539062 6.5859375 C18.87902617 9.63707852 18.87902617 9.63707852 20 13 C15.49494547 11.41807245 11.72770059 9.08302964 7.75 6.5 C7.11320313 6.09652344 6.47640625 5.69304687 5.8203125 5.27734375 C1.12526982 2.25053964 1.12526982 2.25053964 0 0 Z " fill="#103142" transform="translate(588,334)"/>
<path d="M0 0 C0.66 0 1.32 0 2 0 C2.33773438 0.89203125 2.67546875 1.7840625 3.0234375 2.703125 C3.46945312 3.87359375 3.91546875 5.0440625 4.375 6.25 C5.03628906 7.99023438 5.03628906 7.99023438 5.7109375 9.765625 C6.89074982 12.88344284 6.89074982 12.88344284 8.1875 15.28125 C9.25093849 17.53083141 8.81784916 18.71002236 8 21 C7.67 19.35 7.34 17.7 7 16 C6.34 16 5.68 16 5 16 C4.15787744 14.08717875 3.32661136 12.16957527 2.5 10.25 C2.0359375 9.18265625 1.571875 8.1153125 1.09375 7.015625 C0 4 0 4 0 0 Z " fill="#13293D" transform="translate(290,589)"/>
<path d="M0 0 C0.66 0 1.32 0 2 0 C2.8394882 2.10171867 3.67139656 4.20646625 4.5 6.3125 C5.19609375 8.07013672 5.19609375 8.07013672 5.90625 9.86328125 C7 13 7 13 7 16 C7.99 16 8.98 16 10 16 C9.67 16.99 9.34 17.98 9 19 C8.34 19 7.68 19 7 19 C4.6797769 15.65059657 3.18630689 12.19639388 1.8125 8.375 C1.46832031 7.43398438 1.12414062 6.49296875 0.76953125 5.5234375 C0 3 0 3 0 0 Z " fill="#766949" transform="translate(748,503)"/>
<path d="M0 0 C-0.33 0.66 -0.66 1.32 -1 2 C-8.25849651 3.42323461 -15.63230047 3.09313103 -23 3 C-23 2.67 -23 2.34 -23 2 C-15.2472493 0.48462814 -7.89957062 -0.27990605 0 0 Z " fill="#113549" transform="translate(511,722)"/>
<path d="M0 0 C0.66 0 1.32 0 2 0 C5.30417422 6.86954798 8.033631 13.63011293 10 21 C9.34 21 8.68 21 8 21 C6.6638956 17.68861092 5.331582 14.37570994 4 11.0625 C3.6184375 10.11697266 3.236875 9.17144531 2.84375 8.19726562 C2.4828125 7.29814453 2.121875 6.39902344 1.75 5.47265625 C1.41484375 4.64000244 1.0796875 3.80734863 0.734375 2.94946289 C0 1 0 1 0 0 Z " fill="#3C4242" transform="translate(739,482)"/>
<path d="M0 0 C4.40867812 0.29391187 7.36337396 1.53992944 11 4 C10.67 4.66 10.34 5.32 10 6 C8.27473958 4.92578125 6.54947917 3.8515625 4.82421875 2.77734375 C2.82866925 1.68887926 2.82866925 1.68887926 0 3 C-1.44870619 4.85804317 -1.44870619 4.85804317 -2.6875 7.0625 C-3.12449219 7.79597656 -3.56148437 8.52945313 -4.01171875 9.28515625 C-4.50091797 10.13400391 -4.50091797 10.13400391 -5 11 C-5.33 10.34 -5.66 9.68 -6 9 C-4.21293716 5.54912004 -2.74146784 2.74146784 0 0 Z " fill="#395064" transform="translate(556,544)"/>
<path d="M0 0 C0.66 0.66 1.32 1.32 2 2 C-1.3 5.3 -4.6 8.6 -8 12 C-8.66 11.34 -9.32 10.68 -10 10 C-6.66666667 6.66666667 -3.33333333 3.33333333 0 0 Z " fill="#0A1E39" transform="translate(344,364)"/>
<path d="M0 0 C5.63098876 3.00064027 10.88084541 6.18786361 16 10 C15.67 10.66 15.34 11.32 15 12 C13.68 11.34 12.36 10.68 11 10 C11 9.34 11 8.68 11 8 C10.41734375 7.88527344 9.8346875 7.77054688 9.234375 7.65234375 C6.83476865 6.95175938 5.27139067 6.01807405 3.25 4.5625 C2.63640625 4.13066406 2.0228125 3.69882812 1.390625 3.25390625 C0.70226562 2.63322266 0.70226562 2.63322266 0 2 C0 1.34 0 0.68 0 0 Z " fill="#122940" transform="translate(362,684)"/>
<path d="M0 0 C-6.27 2.31 -12.54 4.62 -19 7 C-19.66 6.34 -20.32 5.68 -21 5 C-18.06746654 3.96448955 -15.12833062 2.94918162 -12.1875 1.9375 C-11.35412109 1.64294922 -10.52074219 1.34839844 -9.66210938 1.04492188 C-8.45844727 0.6340332 -8.45844727 0.6340332 -7.23046875 0.21484375 C-6.49207764 -0.04176025 -5.75368652 -0.29836426 -4.99291992 -0.56274414 C-3 -1 -3 -1 0 0 Z " fill="#ACB0BB" transform="translate(456,325)"/>
<path d="M0 0 C0.66 0.33 1.32 0.66 2 1 C0.10907094 2.7763273 -1.78738753 4.5460414 -3.6875 6.3125 C-4.48317383 7.06176758 -4.48317383 7.06176758 -5.29492188 7.82617188 C-8.35165829 10.65787248 -11.31209767 12.99525903 -15 15 C-13.58681481 11.6953208 -11.92720475 9.80491413 -9.1875 7.5 C-8.47980469 6.90058594 -7.77210938 6.30117188 -7.04296875 5.68359375 C-4.7141111 3.76440131 -2.37814075 1.85792246 0 0 Z " fill="#253549" transform="translate(637,371)"/>
<path d="M0 0 C4.66666667 4 9.33333333 8 14 12 C13.67 12.99 13.34 13.98 13 15 C10.82722286 12.88094537 8.66173092 10.75527122 6.5 8.625 C5.87996094 8.02171875 5.25992187 7.4184375 4.62109375 6.796875 C4.03457031 6.21679688 3.44804687 5.63671875 2.84375 5.0390625 C2.29912109 4.50490723 1.75449219 3.97075195 1.19335938 3.42041016 C0 2 0 2 0 0 Z " fill="#143F53" transform="translate(429,615)"/>
<path d="M0 0 C2.64 0 5.28 0 8 0 C8 2.31 8 4.62 8 7 C1.125 3.375 1.125 3.375 0 0 Z " fill="#11ABBB" transform="translate(331,477)"/>
<path d="M0 0 C0.33 0.99 0.66 1.98 1 3 C-2.63 6.63 -6.26 10.26 -10 14 C-10.33 13.01 -10.66 12.02 -11 11 C-10.54109375 10.62488281 -10.0821875 10.24976563 -9.609375 9.86328125 C-5.96703891 6.82545052 -2.82808093 3.84619007 0 0 Z " fill="#0F436B" transform="translate(437,394)"/>
<path d="M0 0 C0.99 0.33 1.98 0.66 3 1 C-0.63 4.96 -4.26 8.92 -8 13 C-8.66 12.67 -9.32 12.34 -10 12 C-9.36191406 11.30132813 -8.72382812 10.60265625 -8.06640625 9.8828125 C-7.24011719 8.97273437 -6.41382813 8.06265625 -5.5625 7.125 C-4.73878906 6.22007812 -3.91507813 5.31515625 -3.06640625 4.3828125 C-0.99092058 2.18862073 -0.99092058 2.18862073 0 0 Z " fill="#213E4C" transform="translate(580,580)"/>
<path d="M0 0 C0.66 0 1.32 0 2 0 C0.67667681 3.96996957 -2.0089399 5.76036395 -5.24609375 8.14453125 C-7 9 -7 9 -10 8 C-8.71283353 6.99421411 -7.42011342 5.99553202 -6.125 5 C-5.40570312 4.443125 -4.68640625 3.88625 -3.9453125 3.3125 C-2 2 -2 2 0 2 C0 1.34 0 0.68 0 0 Z " fill="#132A3A" transform="translate(644,634)"/>
<path d="M0 0 C0.66 0.33 1.32 0.66 2 1 C0.57282151 2.67551353 -0.86708482 4.34019309 -2.3125 6 C-3.51326172 7.3921875 -3.51326172 7.3921875 -4.73828125 8.8125 C-7 11 -7 11 -10 11 C-9.04882866 9.8274869 -8.08882991 8.66212985 -7.125 7.5 C-6.32449219 6.52546875 -6.32449219 6.52546875 -5.5078125 5.53125 C-5.01023437 5.0259375 -4.51265625 4.520625 -4 4 C-3.34 4 -2.68 4 -2 4 C-1.34 2.68 -0.68 1.36 0 0 Z " fill="#2E4250" transform="translate(548,555)"/>
<path d="M0 0 C5.23880078 0.55145271 9.97350697 1.42922093 15 3 C15 3.33 15 3.66 15 4 C5.58418741 4.15959004 5.58418741 4.15959004 2 3 C1.34 2.01 0.68 1.02 0 0 Z " fill="#134768" transform="translate(576,349)"/>
<path d="M0 0 C3.63559661 3.43361902 6.36113346 6.7973607 9 11 C8.67 11.66 8.34 12.32 8 13 C4.32117927 9.71533863 2.24849899 6.33639092 0 2 C0 1.34 0 0.68 0 0 Z " fill="#162B41" transform="translate(310,629)"/>
<path d="M0 0 C2.49361571 1.20381448 4.68143083 2.45428722 7 4 C7 4.66 7 5.32 7 6 C7.66 6 8.32 6 9 6 C9.66 7.65 10.32 9.3 11 11 C6.86378916 7.6189962 3.18683431 4.33409466 0 0 Z " fill="#182834" transform="translate(622,358)"/>
<path d="M0 0 C1.1725131 0.95117134 2.33787015 1.91117009 3.5 2.875 C4.47453125 3.67550781 4.47453125 3.67550781 5.46875 4.4921875 C5.9740625 4.98976563 6.479375 5.48734375 7 6 C7 6.66 7 7.32 7 8 C3.62496331 6.8141763 1.35277269 5.72426311 -1 3 C-0.67 2.01 -0.34 1.02 0 0 Z " fill="#1490A8" transform="translate(626,363)"/>
<path d="M0 0 C1.17539996 0.92652701 2.34010577 1.86663387 3.5 2.8125 C4.1496875 3.33457031 4.799375 3.85664062 5.46875 4.39453125 C7 6 7 6 7 9 C6.01 9.495 6.01 9.495 5 10 C4.16121545 8.71186658 3.32913217 7.41936744 2.5 6.125 C2.0359375 5.40570312 1.571875 4.68640625 1.09375 3.9453125 C0 2 0 2 0 0 Z " fill="#214B5F" transform="translate(406,583)"/>
<path d="M0 0 C3 3.75 3 3.75 3 6 C1.68 6.33 0.36 6.66 -1 7 C-2 4 -2 4 -1.0625 1.8125 C-0.5365625 0.9153125 -0.5365625 0.9153125 0 0 Z " fill="#1BAFBE" transform="translate(367,405)"/>
<path d="M0 0 C0.99 0.33 1.98 0.66 3 1 C-1.75 5.875 -1.75 5.875 -4 7 C-3.43628586 3.73045798 -2.50037734 2.17424117 0 0 Z " fill="#133F58" transform="translate(650,629)"/>
<path d="M0 0 C0.33 0.66 0.66 1.32 1 2 C-0.98 4.97 -0.98 4.97 -3 8 C-3.66 7.67 -4.32 7.34 -5 7 C-3.70700306 4.11562221 -2.34058637 2.12780579 0 0 Z " fill="#1FD1D3" transform="translate(658,625)"/>
<path d="M0 0 C0.33 0.66 0.66 1.32 1 2 C0.00390625 3.9453125 0.00390625 3.9453125 -1.4375 6.125 C-1.91058594 6.84945312 -2.38367188 7.57390625 -2.87109375 8.3203125 C-3.24363281 8.87460937 -3.61617187 9.42890625 -4 10 C-4.33 9.34 -4.66 8.68 -5 8 C-4.2578125 6.30859375 -4.2578125 6.30859375 -3.125 4.4375 C-2.75632812 3.81746094 -2.38765625 3.19742188 -2.0078125 2.55859375 C-1 1 -1 1 0 0 Z " fill="#2E4051" transform="translate(555,545)"/>
<path d="M0 0 C0 0.66 0 1.32 0 2 C-1.53125 3.2890625 -1.53125 3.2890625 -3.5 4.625 C-4.1496875 5.07101562 -4.799375 5.51703125 -5.46875 5.9765625 C-5.9740625 6.31429688 -6.479375 6.65203125 -7 7 C-6.2421875 3.21875 -6.2421875 3.21875 -4.0625 1.25 C-2 0 -2 0 0 0 Z " fill="#10364F" transform="translate(460,376)"/>
<path d="M0 0 C0.99 0.33 1.98 0.66 3 1 C1.68 2.32 0.36 3.64 -1 5 C-1.99 4.67 -2.98 4.34 -4 4 C-2.68 2.68 -1.36 1.36 0 0 Z " fill="#1AAFC1" transform="translate(381,416)"/>
</svg>
